<?xml version="1.0" standalone="no"?>
<!DOCTYPE svg PUBLIC "-//W3C//DTD SVG 20010904//EN"
 "http://www.w3.org/TR/2001/REC-SVG-20010904/DTD/svg10.dtd">
<svg version="1.0" xmlns="http://www.w3.org/2000/svg"
 width="512.000000pt" height="512.000000pt" viewBox="0 0 512.000000 512.000000"
 preserveAspectRatio="xMidYMid meet">
<metadata>
Created by potrace 1.14, written by Peter Selinger 2001-2017
</metadata>
<g transform="translate(0.000000,512.000000) scale(0.100000,-0.100000)"
fill="#000000" stroke="none">
<path d="M2400 5114 c-19 -2 -82 -9 -140 -15 -426 -45 -863 -218 -1215 -479
-103 -76 -119 -104 -91 -158 33 -64 80 -58 191 24 124 91 230 155 370 223 525
257 1126 310 1696 150 537 -150 1023 -503 1334 -969 262 -394 405 -863 405
-1330 0 -750 -360 -1467 -961 -1916 -545 -405 -1249 -562 -1909 -425 -671 140
-1251 559 -1592 1151 -513 892 -393 2026 295 2789 55 60 67 80 67 108 0 44
-37 83 -79 83 -38 0 -72 -29 -172 -149 -303 -361 -505 -819 -575 -1306 -24
-165 -24 -505 0 -670 81 -560 315 -1044 696 -1439 403 -418 905 -672 1505
-763 97 -15 260 -17 1420 -20 906 -3 1321 -1 1346 6 95 28 128 90 129 241 0
58 -4 121 -10 139 -10 35 -49 84 -85 104 -14 9 -155 13 -474 17 l-454 5 74 60
c393 316 702 781 844 1271 68 236 99 454 99 714 0 413 -81 761 -264 1135 -200
407 -505 751 -895 1008 -303 199 -691 343 -1060 392 -116 15 -424 27 -495 19z"/>
<path d="M2421 4679 c-155 -30 -281 -98 -396 -214 -101 -101 -145 -169 -187
-286 -73 -207 -51 -449 59 -639 57 -99 200 -236 298 -287 136 -70 210 -88 360
-88 156 0 219 15 355 81 80 40 108 61 185 138 102 103 145 169 186 290 59 169
59 341 1 505 -42 117 -86 185 -188 288 -80 80 -103 97 -195 142 -63 30 -134
56 -181 65 -83 17 -225 19 -297 5z m317 -184 c192 -61 340 -213 398 -410 20
-68 25 -258 7 -276 -7 -7 -29 -3 -74 16 -170 70 -360 100 -569 92 -162 -7
-262 -26 -415 -81 -65 -24 -103 -32 -109 -26 -17 17 -12 209 8 274 59 199 204
349 394 410 110 36 250 36 360 1z"/>
<path d="M1090 3320 c-167 -23 -308 -96 -437 -225 -79 -80 -98 -105 -142 -196
-65 -135 -86 -234 -78 -379 10 -199 79 -353 222 -495 102 -102 183 -154 300
-191 165 -52 314 -52 480 0 117 37 198 89 300 191 100 100 154 189 196 325 34
109 34 312 1 420 -66 209 -210 383 -399 478 -114 59 -309 90 -443 72z m223
-179 c4 -4 -1 -28 -12 -54 -68 -158 -103 -336 -103 -527 0 -168 21 -289 73
-440 22 -63 41 -122 42 -130 3 -26 -109 -35 -216 -17 -240 41 -427 216 -483
453 -22 92 -15 235 16 324 70 208 257 367 470 400 60 9 200 4 213 -9z"/>
<path d="M3822 3320 c-87 -12 -205 -53 -282 -97 -99 -57 -236 -200 -287 -298
-70 -136 -88 -209 -88 -365 0 -156 17 -228 88 -365 51 -98 188 -241 287 -298
81 -47 200 -85 304 -98 149 -19 335 21 473 102 93 55 231 199 280 294 71 137
88 209 88 365 0 114 -4 147 -23 210 -66 209 -210 383 -399 478 -114 58 -309
90 -441 72z m282 -191 c177 -54 325 -200 386 -379 31 -89 38 -232 16 -324 -56
-238 -243 -412 -485 -453 -105 -18 -217 -9 -214 17 1 8 20 67 42 130 52 151
73 272 73 440 0 168 -21 289 -73 440 -22 63 -41 122 -42 130 -5 34 187 34 297
-1z"/>
<path d="M2455 2791 c-50 -23 -109 -84 -130 -133 -21 -52 -19 -153 4 -203 23
-50 84 -109 133 -130 52 -21 153 -19 203 4 52 24 103 75 126 126 25 54 25 157
0 210 -23 50 -84 109 -133 130 -52 21 -153 19 -203 -4z"/>
<path d="M2421 1950 c-160 -34 -281 -100 -396 -215 -101 -101 -145 -169 -187
-286 -73 -208 -53 -437 58 -638 55 -98 197 -235 299 -288 137 -71 209 -88 365
-88 156 0 228 17 365 88 98 51 241 188 298 287 107 185 130 414 63 625 -37
117 -89 198 -191 300 -98 99 -189 154 -320 195 -79 25 -279 36 -354 20z m-296
-681 c146 -51 269 -71 435 -71 168 0 289 21 440 73 63 22 122 41 130 42 26 3
35 -109 17 -216 -52 -304 -308 -510 -617 -494 -206 10 -375 111 -483 289 -57
95 -81 183 -81 303 0 107 6 131 33 119 9 -4 66 -24 126 -45z"/>
</g>
</svg>
