<svg xmlns="http://www.w3.org/2000/svg" version="1.1" xmlns:xlink="http://www.w3.org/1999/xlink" xmlns:svgjs="http://svgjs.dev/svgjs" viewBox="0 0 800 800" opacity="0.21" width="800" height="800"><g stroke-width="2.25" stroke="#acafb1ff" fill="none"><circle r="2.7105263157894735" cx="0" cy="0" fill="#acafb1ff" stroke="none"></circle><circle r="2.7105263157894735" cx="53.333333333333336" cy="0" fill="#acafb1ff" stroke="none"></circle><circle r="2.7105263157894735" cx="106.66666666666667" cy="0" fill="#acafb1ff" stroke="none"></circle><circle r="2.7105263157894735" cx="160" cy="0" fill="#acafb1ff" stroke="none"></circle><circle r="2.7105263157894735" cx="213.33333333333334" cy="0" fill="#acafb1ff" stroke="none"></circle><circle r="2.7105263157894735" cx="266.6666666666667" cy="0" fill="#acafb1ff" stroke="none"></circle><circle r="2.7105263157894735" cx="320" cy="0" fill="#acafb1ff" stroke="none"></circle><circle r="2.7105263157894735" cx="373.3333333333333" cy="0" fill="#acafb1ff" stroke="none"></circle><circle r="2.7105263157894735" cx="426.66666666666663" cy="0" fill="#acafb1ff" stroke="none"></circle><circle r="2.7105263157894735" cx="479.99999999999994" cy="0" fill="#acafb1ff" stroke="none"></circle><circle r="2.7105263157894735" cx="533.3333333333333" cy="0" fill="#acafb1ff" stroke="none"></circle><circle r="2.7105263157894735" cx="586.6666666666666" cy="0" fill="#acafb1ff" stroke="none"></circle><circle r="2.7105263157894735" cx="640" cy="0" fill="#acafb1ff" stroke="none"></circle><circle r="2.7105263157894735" cx="693.3333333333334" cy="0" fill="#acafb1ff" stroke="none"></circle><circle r="2.7105263157894735" cx="746.6666666666667" cy="0" fill="#acafb1ff" stroke="none"></circle><circle r="2.7105263157894735" cx="800.0000000000001" cy="0" fill="#acafb1ff" stroke="none"></circle><circle r="2.7105263157894735" cx="0" cy="61.53846153846154" fill="#acafb1ff" stroke="none"></circle><circle r="2.7105263157894735" cx="53.333333333333336" cy="61.53846153846154" fill="#acafb1ff" stroke="none"></circle><circle r="2.7105263157894735" cx="106.66666666666667" cy="61.53846153846154" fill="#acafb1ff" stroke="none"></circle><circle r="2.7105263157894735" cx="160" cy="61.53846153846154" fill="#acafb1ff" stroke="none"></circle><circle r="2.7105263157894735" cx="213.33333333333334" cy="61.53846153846154" fill="#acafb1ff" stroke="none"></circle><circle r="2.7105263157894735" cx="266.6666666666667" cy="61.53846153846154" fill="#acafb1ff" stroke="none"></circle><circle r="2.7105263157894735" cx="320" cy="61.53846153846154" fill="#acafb1ff" stroke="none"></circle><circle r="2.7105263157894735" cx="373.3333333333333" cy="61.53846153846154" fill="#acafb1ff" stroke="none"></circle><circle r="2.7105263157894735" cx="426.66666666666663" cy="61.53846153846154" fill="#acafb1ff" stroke="none"></circle><circle r="2.7105263157894735" cx="479.99999999999994" cy="61.53846153846154" fill="#acafb1ff" stroke="none"></circle><circle r="2.7105263157894735" cx="533.3333333333333" cy="61.53846153846154" fill="#acafb1ff" stroke="none"></circle><circle r="2.7105263157894735" cx="586.6666666666666" cy="61.53846153846154" fill="#acafb1ff" stroke="none"></circle><circle r="2.7105263157894735" cx="640" cy="61.53846153846154" fill="#acafb1ff" stroke="none"></circle><circle r="2.7105263157894735" cx="693.3333333333334" cy="61.53846153846154" fill="#acafb1ff" stroke="none"></circle><circle r="2.7105263157894735" cx="746.6666666666667" cy="61.53846153846154" fill="#acafb1ff" stroke="none"></circle><circle r="2.7105263157894735" cx="800.0000000000001" cy="61.53846153846154" fill="#acafb1ff" stroke="none"></circle><circle r="2.7105263157894735" cx="0" cy="123.07692307692308" fill="#acafb1ff" stroke="none"></circle><circle r="2.7105263157894735" cx="53.333333333333336" cy="123.07692307692308" fill="#acafb1ff" stroke="none"></circle><circle r="2.7105263157894735" cx="106.66666666666667" cy="123.07692307692308" fill="#acafb1ff" stroke="none"></circle><circle r="2.7105263157894735" cx="160" cy="123.07692307692308" fill="#acafb1ff" stroke="none"></circle><circle r="2.7105263157894735" cx="213.33333333333334" cy="123.07692307692308" fill="#acafb1ff" stroke="none"></circle><circle r="2.7105263157894735" cx="266.6666666666667" cy="123.07692307692308" fill="#acafb1ff" stroke="none"></circle><circle r="2.7105263157894735" cx="320" cy="123.07692307692308" fill="#acafb1ff" stroke="none"></circle><circle r="2.7105263157894735" cx="373.3333333333333" cy="123.07692307692308" fill="#acafb1ff" stroke="none"></circle><circle r="2.7105263157894735" cx="426.66666666666663" cy="123.07692307692308" fill="#acafb1ff" stroke="none"></circle><circle r="2.7105263157894735" cx="479.99999999999994" cy="123.07692307692308" fill="#acafb1ff" stroke="none"></circle><circle r="2.7105263157894735" cx="533.3333333333333" cy="123.07692307692308" fill="#acafb1ff" stroke="none"></circle><circle r="2.7105263157894735" cx="586.6666666666666" cy="123.07692307692308" fill="#acafb1ff" stroke="none"></circle><circle r="2.7105263157894735" cx="640" cy="123.07692307692308" fill="#acafb1ff" stroke="none"></circle><circle r="2.7105263157894735" cx="693.3333333333334" cy="123.07692307692308" fill="#acafb1ff" stroke="none"></circle><circle r="2.7105263157894735" cx="746.6666666666667" cy="123.07692307692308" fill="#acafb1ff" stroke="none"></circle><circle r="2.7105263157894735" cx="800.0000000000001" cy="123.07692307692308" fill="#acafb1ff" stroke="none"></circle><circle r="2.7105263157894735" cx="0" cy="184.6153846153846" fill="#acafb1ff" stroke="none"></circle><circle r="2.7105263157894735" cx="53.333333333333336" cy="184.6153846153846" fill="#acafb1ff" stroke="none"></circle><circle r="2.7105263157894735" cx="106.66666666666667" cy="184.6153846153846" fill="#acafb1ff" stroke="none"></circle><circle r="2.7105263157894735" cx="160" cy="184.6153846153846" fill="#acafb1ff" stroke="none"></circle><circle r="2.7105263157894735" cx="213.33333333333334" cy="184.6153846153846" fill="#acafb1ff" stroke="none"></circle><circle r="2.7105263157894735" cx="266.6666666666667" cy="184.6153846153846" fill="#acafb1ff" stroke="none"></circle><circle r="2.7105263157894735" cx="320" cy="184.6153846153846" fill="#acafb1ff" stroke="none"></circle><circle r="2.7105263157894735" cx="373.3333333333333" cy="184.6153846153846" fill="#acafb1ff" stroke="none"></circle><circle r="2.7105263157894735" cx="426.66666666666663" cy="184.6153846153846" fill="#acafb1ff" stroke="none"></circle><circle r="2.7105263157894735" cx="479.99999999999994" cy="184.6153846153846" fill="#acafb1ff" stroke="none"></circle><circle r="2.7105263157894735" cx="533.3333333333333" cy="184.6153846153846" fill="#acafb1ff" stroke="none"></circle><circle r="2.7105263157894735" cx="586.6666666666666" cy="184.6153846153846" fill="#acafb1ff" stroke="none"></circle><circle r="2.7105263157894735" cx="640" cy="184.6153846153846" fill="#acafb1ff" stroke="none"></circle><circle r="2.7105263157894735" cx="693.3333333333334" cy="184.6153846153846" fill="#acafb1ff" stroke="none"></circle><circle r="2.7105263157894735" cx="746.6666666666667" cy="184.6153846153846" fill="#acafb1ff" stroke="none"></circle><circle r="2.7105263157894735" cx="800.0000000000001" cy="184.6153846153846" fill="#acafb1ff" stroke="none"></circle><circle r="2.7105263157894735" cx="0" cy="246.15384615384616" fill="#acafb1ff" stroke="none"></circle><circle r="2.7105263157894735" cx="53.333333333333336" cy="246.15384615384616" fill="#acafb1ff" stroke="none"></circle><circle r="2.7105263157894735" cx="106.66666666666667" cy="246.15384615384616" fill="#acafb1ff" stroke="none"></circle><circle r="2.7105263157894735" cx="160" cy="246.15384615384616" fill="#acafb1ff" stroke="none"></circle><circle r="2.7105263157894735" cx="213.33333333333334" cy="246.15384615384616" fill="#acafb1ff" stroke="none"></circle><circle r="2.7105263157894735" cx="266.6666666666667" cy="246.15384615384616" fill="#acafb1ff" stroke="none"></circle><circle r="2.7105263157894735" cx="320" cy="246.15384615384616" fill="#acafb1ff" stroke="none"></circle><circle r="2.7105263157894735" cx="373.3333333333333" cy="246.15384615384616" fill="#acafb1ff" stroke="none"></circle><circle r="2.7105263157894735" cx="426.66666666666663" cy="246.15384615384616" fill="#acafb1ff" stroke="none"></circle><circle r="2.7105263157894735" cx="479.99999999999994" cy="246.15384615384616" fill="#acafb1ff" stroke="none"></circle><circle r="2.7105263157894735" cx="533.3333333333333" cy="246.15384615384616" fill="#acafb1ff" stroke="none"></circle><circle r="2.7105263157894735" cx="586.6666666666666" cy="246.15384615384616" fill="#acafb1ff" stroke="none"></circle><circle r="2.7105263157894735" cx="640" cy="246.15384615384616" fill="#acafb1ff" stroke="none"></circle><circle r="2.7105263157894735" cx="693.3333333333334" cy="246.15384615384616" fill="#acafb1ff" stroke="none"></circle><circle r="2.7105263157894735" cx="746.6666666666667" cy="246.15384615384616" fill="#acafb1ff" stroke="none"></circle><circle r="2.7105263157894735" cx="800.0000000000001" cy="246.15384615384616" fill="#acafb1ff" stroke="none"></circle><circle r="2.7105263157894735" cx="0" cy="307.6923076923077" fill="#acafb1ff" stroke="none"></circle><circle r="2.7105263157894735" cx="53.333333333333336" cy="307.6923076923077" fill="#acafb1ff" stroke="none"></circle><circle r="2.7105263157894735" cx="106.66666666666667" cy="307.6923076923077" fill="#acafb1ff" stroke="none"></circle><circle r="2.7105263157894735" cx="160" cy="307.6923076923077" fill="#acafb1ff" stroke="none"></circle><circle r="2.7105263157894735" cx="213.33333333333334" cy="307.6923076923077" fill="#acafb1ff" stroke="none"></circle><circle r="2.7105263157894735" cx="266.6666666666667" cy="307.6923076923077" fill="#acafb1ff" stroke="none"></circle><circle r="2.7105263157894735" cx="320" cy="307.6923076923077" fill="#acafb1ff" stroke="none"></circle><circle r="2.7105263157894735" cx="373.3333333333333" cy="307.6923076923077" fill="#acafb1ff" stroke="none"></circle><circle r="2.7105263157894735" cx="426.66666666666663" cy="307.6923076923077" fill="#acafb1ff" stroke="none"></circle><circle r="2.7105263157894735" cx="479.99999999999994" cy="307.6923076923077" fill="#acafb1ff" stroke="none"></circle><circle r="2.7105263157894735" cx="533.3333333333333" cy="307.6923076923077" fill="#acafb1ff" stroke="none"></circle><circle r="2.7105263157894735" cx="586.6666666666666" cy="307.6923076923077" fill="#acafb1ff" stroke="none"></circle><circle r="2.7105263157894735" cx="640" cy="307.6923076923077" fill="#acafb1ff" stroke="none"></circle><circle r="2.7105263157894735" cx="693.3333333333334" cy="307.6923076923077" fill="#acafb1ff" stroke="none"></circle><circle r="2.7105263157894735" cx="746.6666666666667" cy="307.6923076923077" fill="#acafb1ff" stroke="none"></circle><circle r="2.7105263157894735" cx="800.0000000000001" cy="307.6923076923077" fill="#acafb1ff" stroke="none"></circle><circle r="2.7105263157894735" cx="0" cy="369.2307692307692" fill="#acafb1ff" stroke="none"></circle><circle r="2.7105263157894735" cx="53.333333333333336" cy="369.2307692307692" fill="#acafb1ff" stroke="none"></circle><circle r="2.7105263157894735" cx="106.66666666666667" cy="369.2307692307692" fill="#acafb1ff" stroke="none"></circle><circle r="2.7105263157894735" cx="160" cy="369.2307692307692" fill="#acafb1ff" stroke="none"></circle><circle r="2.7105263157894735" cx="213.33333333333334" cy="369.2307692307692" fill="#acafb1ff" stroke="none"></circle><circle r="2.7105263157894735" cx="266.6666666666667" cy="369.2307692307692" fill="#acafb1ff" stroke="none"></circle><circle r="2.7105263157894735" cx="320" cy="369.2307692307692" fill="#acafb1ff" stroke="none"></circle><circle r="2.7105263157894735" cx="373.3333333333333" cy="369.2307692307692" fill="#acafb1ff" stroke="none"></circle><circle r="2.7105263157894735" cx="426.66666666666663" cy="369.2307692307692" fill="#acafb1ff" stroke="none"></circle><circle r="2.7105263157894735" cx="479.99999999999994" cy="369.2307692307692" fill="#acafb1ff" stroke="none"></circle><circle r="2.7105263157894735" cx="533.3333333333333" cy="369.2307692307692" fill="#acafb1ff" stroke="none"></circle><circle r="2.7105263157894735" cx="586.6666666666666" cy="369.2307692307692" fill="#acafb1ff" stroke="none"></circle><circle r="2.7105263157894735" cx="640" cy="369.2307692307692" fill="#acafb1ff" stroke="none"></circle><circle r="2.7105263157894735" cx="693.3333333333334" cy="369.2307692307692" fill="#acafb1ff" stroke="none"></circle><circle r="2.7105263157894735" cx="746.6666666666667" cy="369.2307692307692" fill="#acafb1ff" stroke="none"></circle><circle r="2.7105263157894735" cx="800.0000000000001" cy="369.2307692307692" fill="#acafb1ff" stroke="none"></circle><circle r="2.7105263157894735" cx="0" cy="430.7692307692308" fill="#acafb1ff" stroke="none"></circle><circle r="2.7105263157894735" cx="53.333333333333336" cy="430.7692307692308" fill="#acafb1ff" stroke="none"></circle><circle r="2.7105263157894735" cx="106.66666666666667" cy="430.7692307692308" fill="#acafb1ff" stroke="none"></circle><circle r="2.7105263157894735" cx="160" cy="430.7692307692308" fill="#acafb1ff" stroke="none"></circle><circle r="2.7105263157894735" cx="213.33333333333334" cy="430.7692307692308" fill="#acafb1ff" stroke="none"></circle><circle r="2.7105263157894735" cx="266.6666666666667" cy="430.7692307692308" fill="#acafb1ff" stroke="none"></circle><circle r="2.7105263157894735" cx="320" cy="430.7692307692308" fill="#acafb1ff" stroke="none"></circle><circle r="2.7105263157894735" cx="373.3333333333333" cy="430.7692307692308" fill="#acafb1ff" stroke="none"></circle><circle r="2.7105263157894735" cx="426.66666666666663" cy="430.7692307692308" fill="#acafb1ff" stroke="none"></circle><circle r="2.7105263157894735" cx="479.99999999999994" cy="430.7692307692308" fill="#acafb1ff" stroke="none"></circle><circle r="2.7105263157894735" cx="533.3333333333333" cy="430.7692307692308" fill="#acafb1ff" stroke="none"></circle><circle r="2.7105263157894735" cx="586.6666666666666" cy="430.7692307692308" fill="#acafb1ff" stroke="none"></circle><circle r="2.7105263157894735" cx="640" cy="430.7692307692308" fill="#acafb1ff" stroke="none"></circle><circle r="2.7105263157894735" cx="693.3333333333334" cy="430.7692307692308" fill="#acafb1ff" stroke="none"></circle><circle r="2.7105263157894735" cx="746.6666666666667" cy="430.7692307692308" fill="#acafb1ff" stroke="none"></circle><circle r="2.7105263157894735" cx="800.0000000000001" cy="430.7692307692308" fill="#acafb1ff" stroke="none"></circle><circle r="2.7105263157894735" cx="0" cy="492.3076923076923" fill="#acafb1ff" stroke="none"></circle><circle r="2.7105263157894735" cx="53.333333333333336" cy="492.3076923076923" fill="#acafb1ff" stroke="none"></circle><circle r="2.7105263157894735" cx="106.66666666666667" cy="492.3076923076923" fill="#acafb1ff" stroke="none"></circle><circle r="2.7105263157894735" cx="160" cy="492.3076923076923" fill="#acafb1ff" stroke="none"></circle><circle r="2.7105263157894735" cx="213.33333333333334" cy="492.3076923076923" fill="#acafb1ff" stroke="none"></circle><circle r="2.7105263157894735" cx="266.6666666666667" cy="492.3076923076923" fill="#acafb1ff" stroke="none"></circle><circle r="2.7105263157894735" cx="320" cy="492.3076923076923" fill="#acafb1ff" stroke="none"></circle><circle r="2.7105263157894735" cx="373.3333333333333" cy="492.3076923076923" fill="#acafb1ff" stroke="none"></circle><circle r="2.7105263157894735" cx="426.66666666666663" cy="492.3076923076923" fill="#acafb1ff" stroke="none"></circle><circle r="2.7105263157894735" cx="479.99999999999994" cy="492.3076923076923" fill="#acafb1ff" stroke="none"></circle><circle r="2.7105263157894735" cx="533.3333333333333" cy="492.3076923076923" fill="#acafb1ff" stroke="none"></circle><circle r="2.7105263157894735" cx="586.6666666666666" cy="492.3076923076923" fill="#acafb1ff" stroke="none"></circle><circle r="2.7105263157894735" cx="640" cy="492.3076923076923" fill="#acafb1ff" stroke="none"></circle><circle r="2.7105263157894735" cx="693.3333333333334" cy="492.3076923076923" fill="#acafb1ff" stroke="none"></circle><circle r="2.7105263157894735" cx="746.6666666666667" cy="492.3076923076923" fill="#acafb1ff" stroke="none"></circle><circle r="2.7105263157894735" cx="800.0000000000001" cy="492.3076923076923" fill="#acafb1ff" stroke="none"></circle><circle r="2.7105263157894735" cx="0" cy="553.8461538461538" fill="#acafb1ff" stroke="none"></circle><circle r="2.7105263157894735" cx="53.333333333333336" cy="553.8461538461538" fill="#acafb1ff" stroke="none"></circle><circle r="2.7105263157894735" cx="106.66666666666667" cy="553.8461538461538" fill="#acafb1ff" stroke="none"></circle><circle r="2.7105263157894735" cx="160" cy="553.8461538461538" fill="#acafb1ff" stroke="none"></circle><circle r="2.7105263157894735" cx="213.33333333333334" cy="553.8461538461538" fill="#acafb1ff" stroke="none"></circle><circle r="2.7105263157894735" cx="266.6666666666667" cy="553.8461538461538" fill="#acafb1ff" stroke="none"></circle><circle r="2.7105263157894735" cx="320" cy="553.8461538461538" fill="#acafb1ff" stroke="none"></circle><circle r="2.7105263157894735" cx="373.3333333333333" cy="553.8461538461538" fill="#acafb1ff" stroke="none"></circle><circle r="2.7105263157894735" cx="426.66666666666663" cy="553.8461538461538" fill="#acafb1ff" stroke="none"></circle><circle r="2.7105263157894735" cx="479.99999999999994" cy="553.8461538461538" fill="#acafb1ff" stroke="none"></circle><circle r="2.7105263157894735" cx="533.3333333333333" cy="553.8461538461538" fill="#acafb1ff" stroke="none"></circle><circle r="2.7105263157894735" cx="586.6666666666666" cy="553.8461538461538" fill="#acafb1ff" stroke="none"></circle><circle r="2.7105263157894735" cx="640" cy="553.8461538461538" fill="#acafb1ff" stroke="none"></circle><circle r="2.7105263157894735" cx="693.3333333333334" cy="553.8461538461538" fill="#acafb1ff" stroke="none"></circle><circle r="2.7105263157894735" cx="746.6666666666667" cy="553.8461538461538" fill="#acafb1ff" stroke="none"></circle><circle r="2.7105263157894735" cx="800.0000000000001" cy="553.8461538461538" fill="#acafb1ff" stroke="none"></circle><circle r="2.7105263157894735" cx="0" cy="615.3846153846154" fill="#acafb1ff" stroke="none"></circle><circle r="2.7105263157894735" cx="53.333333333333336" cy="615.3846153846154" fill="#acafb1ff" stroke="none"></circle><circle r="2.7105263157894735" cx="106.66666666666667" cy="615.3846153846154" fill="#acafb1ff" stroke="none"></circle><circle r="2.7105263157894735" cx="160" cy="615.3846153846154" fill="#acafb1ff" stroke="none"></circle><circle r="2.7105263157894735" cx="213.33333333333334" cy="615.3846153846154" fill="#acafb1ff" stroke="none"></circle><circle r="2.7105263157894735" cx="266.6666666666667" cy="615.3846153846154" fill="#acafb1ff" stroke="none"></circle><circle r="2.7105263157894735" cx="320" cy="615.3846153846154" fill="#acafb1ff" stroke="none"></circle><circle r="2.7105263157894735" cx="373.3333333333333" cy="615.3846153846154" fill="#acafb1ff" stroke="none"></circle><circle r="2.7105263157894735" cx="426.66666666666663" cy="615.3846153846154" fill="#acafb1ff" stroke="none"></circle><circle r="2.7105263157894735" cx="479.99999999999994" cy="615.3846153846154" fill="#acafb1ff" stroke="none"></circle><circle r="2.7105263157894735" cx="533.3333333333333" cy="615.3846153846154" fill="#acafb1ff" stroke="none"></circle><circle r="2.7105263157894735" cx="586.6666666666666" cy="615.3846153846154" fill="#acafb1ff" stroke="none"></circle><circle r="2.7105263157894735" cx="640" cy="615.3846153846154" fill="#acafb1ff" stroke="none"></circle><circle r="2.7105263157894735" cx="693.3333333333334" cy="615.3846153846154" fill="#acafb1ff" stroke="none"></circle><circle r="2.7105263157894735" cx="746.6666666666667" cy="615.3846153846154" fill="#acafb1ff" stroke="none"></circle><circle r="2.7105263157894735" cx="800.0000000000001" cy="615.3846153846154" fill="#acafb1ff" stroke="none"></circle><circle r="2.7105263157894735" cx="0" cy="676.9230769230769" fill="#acafb1ff" stroke="none"></circle><circle r="2.7105263157894735" cx="53.333333333333336" cy="676.9230769230769" fill="#acafb1ff" stroke="none"></circle><circle r="2.7105263157894735" cx="106.66666666666667" cy="676.9230769230769" fill="#acafb1ff" stroke="none"></circle><circle r="2.7105263157894735" cx="160" cy="676.9230769230769" fill="#acafb1ff" stroke="none"></circle><circle r="2.7105263157894735" cx="213.33333333333334" cy="676.9230769230769" fill="#acafb1ff" stroke="none"></circle><circle r="2.7105263157894735" cx="266.6666666666667" cy="676.9230769230769" fill="#acafb1ff" stroke="none"></circle><circle r="2.7105263157894735" cx="320" cy="676.9230769230769" fill="#acafb1ff" stroke="none"></circle><circle r="2.7105263157894735" cx="373.3333333333333" cy="676.9230769230769" fill="#acafb1ff" stroke="none"></circle><circle r="2.7105263157894735" cx="426.66666666666663" cy="676.9230769230769" fill="#acafb1ff" stroke="none"></circle><circle r="2.7105263157894735" cx="479.99999999999994" cy="676.9230769230769" fill="#acafb1ff" stroke="none"></circle><circle r="2.7105263157894735" cx="533.3333333333333" cy="676.9230769230769" fill="#acafb1ff" stroke="none"></circle><circle r="2.7105263157894735" cx="586.6666666666666" cy="676.9230769230769" fill="#acafb1ff" stroke="none"></circle><circle r="2.7105263157894735" cx="640" cy="676.9230769230769" fill="#acafb1ff" stroke="none"></circle><circle r="2.7105263157894735" cx="693.3333333333334" cy="676.9230769230769" fill="#acafb1ff" stroke="none"></circle><circle r="2.7105263157894735" cx="746.6666666666667" cy="676.9230769230769" fill="#acafb1ff" stroke="none"></circle><circle r="2.7105263157894735" cx="800.0000000000001" cy="676.9230769230769" fill="#acafb1ff" stroke="none"></circle><circle r="2.7105263157894735" cx="0" cy="738.4615384615385" fill="#acafb1ff" stroke="none"></circle><circle r="2.7105263157894735" cx="53.333333333333336" cy="738.4615384615385" fill="#acafb1ff" stroke="none"></circle><circle r="2.7105263157894735" cx="106.66666666666667" cy="738.4615384615385" fill="#acafb1ff" stroke="none"></circle><circle r="2.7105263157894735" cx="160" cy="738.4615384615385" fill="#acafb1ff" stroke="none"></circle><circle r="2.7105263157894735" cx="213.33333333333334" cy="738.4615384615385" fill="#acafb1ff" stroke="none"></circle><circle r="2.7105263157894735" cx="266.6666666666667" cy="738.4615384615385" fill="#acafb1ff" stroke="none"></circle><circle r="2.7105263157894735" cx="320" cy="738.4615384615385" fill="#acafb1ff" stroke="none"></circle><circle r="2.7105263157894735" cx="373.3333333333333" cy="738.4615384615385" fill="#acafb1ff" stroke="none"></circle><circle r="2.7105263157894735" cx="426.66666666666663" cy="738.4615384615385" fill="#acafb1ff" stroke="none"></circle><circle r="2.7105263157894735" cx="479.99999999999994" cy="738.4615384615385" fill="#acafb1ff" stroke="none"></circle><circle r="2.7105263157894735" cx="533.3333333333333" cy="738.4615384615385" fill="#acafb1ff" stroke="none"></circle><circle r="2.7105263157894735" cx="586.6666666666666" cy="738.4615384615385" fill="#acafb1ff" stroke="none"></circle><circle r="2.7105263157894735" cx="640" cy="738.4615384615385" fill="#acafb1ff" stroke="none"></circle><circle r="2.7105263157894735" cx="693.3333333333334" cy="738.4615384615385" fill="#acafb1ff" stroke="none"></circle><circle r="2.7105263157894735" cx="746.6666666666667" cy="738.4615384615385" fill="#acafb1ff" stroke="none"></circle><circle r="2.7105263157894735" cx="800.0000000000001" cy="738.4615384615385" fill="#acafb1ff" stroke="none"></circle><circle r="2.7105263157894735" cx="0" cy="800" fill="#acafb1ff" stroke="none"></circle><circle r="2.7105263157894735" cx="53.333333333333336" cy="800" fill="#acafb1ff" stroke="none"></circle><circle r="2.7105263157894735" cx="106.66666666666667" cy="800" fill="#acafb1ff" stroke="none"></circle><circle r="2.7105263157894735" cx="160" cy="800" fill="#acafb1ff" stroke="none"></circle><circle r="2.7105263157894735" cx="213.33333333333334" cy="800" fill="#acafb1ff" stroke="none"></circle><circle r="2.7105263157894735" cx="266.6666666666667" cy="800" fill="#acafb1ff" stroke="none"></circle><circle r="2.7105263157894735" cx="320" cy="800" fill="#acafb1ff" stroke="none"></circle><circle r="2.7105263157894735" cx="373.3333333333333" cy="800" fill="#acafb1ff" stroke="none"></circle><circle r="2.7105263157894735" cx="426.66666666666663" cy="800" fill="#acafb1ff" stroke="none"></circle><circle r="2.7105263157894735" cx="479.99999999999994" cy="800" fill="#acafb1ff" stroke="none"></circle><circle r="2.7105263157894735" cx="533.3333333333333" cy="800" fill="#acafb1ff" stroke="none"></circle><circle r="2.7105263157894735" cx="586.6666666666666" cy="800" fill="#acafb1ff" stroke="none"></circle><circle r="2.7105263157894735" cx="640" cy="800" fill="#acafb1ff" stroke="none"></circle><circle r="2.7105263157894735" cx="693.3333333333334" cy="800" fill="#acafb1ff" stroke="none"></circle><circle r="2.7105263157894735" cx="746.6666666666667" cy="800" fill="#acafb1ff" stroke="none"></circle><circle r="2.7105263157894735" cx="800.0000000000001" cy="800" fill="#acafb1ff" stroke="none"></circle></g></svg>