<svg xmlns="http://www.w3.org/2000/svg" version="1.1" xmlns:xlink="http://www.w3.org/1999/xlink" xmlns:svgjs="http://svgjs.dev/svgjs" width="1920" height="1080" preserveAspectRatio="none" viewBox="0 0 1920 1080">
    <g mask="url(&quot;#SvgjsMask1035&quot;)" fill="none">
        <path d="M1308.237,720.949C1348.167,723.543,1383.396,695.993,1402.863,661.034C1421.792,627.04,1422.486,585.356,1402.244,552.127C1382.757,520.137,1345.613,503.219,1308.237,505.699C1274.627,507.929,1249.221,533.469,1233.607,563.315C1219.253,590.752,1219.504,621.995,1232.754,649.982C1248.593,683.437,1271.3,718.549,1308.237,720.949" fill="rgba(4, 42, 98, 0.7)" class="triangle-float3"></path>
        <path d="M356.57 707.05 a291.93 291.93 0 1 0 583.86 0 a291.93 291.93 0 1 0 -583.86 0z" fill="rgba(4, 42, 98, 0.7)" class="triangle-float3"></path>
        <path d="M1865.559,563.308C1972.698,567.952,2061.158,489.077,2114.997,396.331C2169.092,303.144,2193.479,187.366,2137.097,95.545C2082.642,6.862,1969.626,-9.467,1865.559,-9.892C1760.485,-10.321,1641.199,1.47,1590.153,93.313C1539.93,183.674,1598.694,287.022,1650.96,376.217C1702.384,463.975,1763.939,558.903,1865.559,563.308" fill="rgba(4, 42, 98, 0.7)" class="triangle-float1"></path>
        <path d="M1913.791,401.316C2000.097,404.848,2093.975,387.809,2139.373,314.323C2186.55,237.956,2168.759,140.508,2122.395,63.645C2077.68,-10.484,2000.354,-60.793,1913.791,-59.647C1829.056,-58.525,1755.303,-5.247,1714.541,69.047C1675.348,140.482,1676.164,227.205,1718.068,297.084C1758.811,365.026,1834.635,398.077,1913.791,401.316" fill="rgba(4, 42, 98, 0.7)" class="triangle-float2"></path>
        <path d="M284.01 297.63 a247.81 247.81 0 1 0 495.62 0 a247.81 247.81 0 1 0 -495.62 0z" fill="rgba(4, 42, 98, 0.7)" class="triangle-float3"></path>
        <path d="M1226.984,483.395C1320.476,482.614,1417.534,458.463,1467.013,379.134C1519.056,295.694,1517.119,186.45,1463.682,103.896C1414.126,27.337,1318.068,3.754,1226.984,8.317C1144.571,12.446,1073.493,56.821,1028.084,125.719C976.583,203.861,934.423,301.413,979.906,383.204C1026.199,466.452,1131.733,484.191,1226.984,483.395" fill="rgba(4, 42, 98, 0.7)" class="triangle-float1"></path>
        <path d="M1187.481,774.483C1232.002,777.62,1277.28,760.948,1301.513,723.469C1327.815,682.788,1332.617,629.773,1308.031,588.033C1283.762,546.83,1235.297,529.359,1187.481,529.872C1140.663,530.375,1092.194,548.659,1071.332,590.575C1051.976,629.465,1075.056,672.42,1098.253,709.149C1119.351,742.555,1148.069,771.706,1187.481,774.483" fill="rgba(4, 42, 98, 0.7)" class="triangle-float1"></path>
    </g>
    <defs>
        <mask id="SvgjsMask1035">
            <rect width="1920" height="1080" fill="#ffffff"></rect>
        </mask>
        <style>
            @keyframes float1 {
                    0%{transform: translate(0, 0)}
                    50%{transform: translate(-10px, 0)}
                    100%{transform: translate(0, 0)}
                }

                .triangle-float1 {
                    animation: float1 5s infinite;
                }

                @keyframes float2 {
                    0%{transform: translate(0, 0)}
                    50%{transform: translate(-5px, -5px)}
                    100%{transform: translate(0, 0)}
                }

                .triangle-float2 {
                    animation: float2 4s infinite;
                }

                @keyframes float3 {
                    0%{transform: translate(0, 0)}
                    50%{transform: translate(0, -10px)}
                    100%{transform: translate(0, 0)}
                }

                .triangle-float3 {
                    animation: float3 6s infinite;
                }
        </style>
    </defs>
</svg>