<svg xmlns="http://www.w3.org/2000/svg" version="1.1" xmlns:xlink="http://www.w3.org/1999/xlink" xmlns:svgjs="http://svgjs.dev/svgjs" width="1920" height="1080" preserveAspectRatio="none" viewBox="0 0 1920 1080">
    <g mask="url(&quot;#SvgjsMask1063&quot;)" fill="none">
        <path d="M123.12,303.565C189.441,304.444,255.48,276.121,288.059,218.347C320.152,161.436,308.756,91.333,273.996,36.011C241.521,-15.674,184.157,-43.447,123.12,-44.162C60.678,-44.894,-1.486,-20.906,-34.007,32.403C-67.808,87.811,-66.955,157.915,-34.414,214.072C-1.961,270.078,58.397,302.707,123.12,303.565" fill="rgba(45, 130, 183, 0.4)" class="triangle-float3"></path>
        <path d="M109.932,271.051C166.704,270.21,216.326,236.91,245.58,188.248C275.853,137.892,286.597,75.765,258.283,24.282C229.043,-28.885,170.608,-58.073,109.932,-58.402C48.654,-58.734,-10.906,-30.591,-41.228,22.66C-71.267,75.414,-64.419,140.514,-32.86,192.373C-2.58,242.13,51.692,271.914,109.932,271.051" fill="rgba(45, 130, 183, 0.4)" class="triangle-float1"></path>
        <path d="M215.87,477.085C306.455,476.695,381.272,415.943,428.155,338.433C477.062,257.577,508.868,155.749,458.655,75.698C410.376,-1.269,306.713,-1.537,215.87,0.006C128.806,1.485,33.549,10.143,-13.038,83.71C-62.145,161.257,-45.773,260.943,0.392,340.277C46.255,419.092,124.683,477.478,215.87,477.085" fill="rgba(45, 130, 183, 0.4)" class="triangle-float3"></path>
        <path d="M1874.938,389.907C1951.734,392.523,2022.458,344.735,2057.642,276.422C2090.259,213.092,2072.967,138.822,2035.442,78.271C2000.181,21.372,1941.875,-17.897,1874.938,-18.395C1807.148,-18.899,1743.975,17.047,1710.247,75.854C1676.684,134.374,1681.26,204.924,1712.591,264.669C1746.612,329.544,1801.726,387.413,1874.938,389.907" fill="rgba(45, 130, 183, 0.4)" class="triangle-float3"></path>
        <path d="M1939.155,526.945C2037.932,523.931,2112.49,449.333,2162.935,364.355C2214.753,277.063,2249.07,173.304,2202.684,83.007C2152.833,-14.035,2048.235,-73.184,1939.155,-71.267C1833.105,-69.403,1742.506,-0.833,1691.196,91.996C1641.632,181.666,1639.66,289.765,1690.402,378.773C1741.633,468.638,1835.761,530.1,1939.155,526.945" fill="rgba(45, 130, 183, 0.4)" class="triangle-float2"></path>
        <path d="M1598.55 -38.55 a66.9 66.9 0 1 0 133.8 0 a66.9 66.9 0 1 0 -133.8 0z" fill="rgba(45, 130, 183, 0.4)" class="triangle-float2"></path>
        <path d="M222.472,1345.347C313.407,1349.83,393.434,1290.305,439.501,1211.774C486.173,1132.212,498.362,1033.697,452.102,953.895C405.965,874.305,314.431,839.947,222.472,837.381C124.926,834.659,14.237,853.694,-30.485,940.427C-73.252,1023.37,-9.85,1112.911,39.593,1192.057C84.762,1264.361,137.322,1341.149,222.472,1345.347" fill="rgba(45, 130, 183, 0.4)" class="triangle-float1"></path>
        <path d="M-93.98 813.99 a43.97 43.97 0 1 0 87.94 0 a43.97 43.97 0 1 0 -87.94 0z" fill="rgba(45, 130, 183, 0.4)" class="triangle-float2"></path>
        <path d="M-147.68 867.69 a151.37 151.37 0 1 0 302.74 0 a151.37 151.37 0 1 0 -302.74 0z" fill="rgba(45, 130, 183, 0.4)" class="triangle-float1"></path>
        <path d="M1599.44 824.56 a65.12 65.12 0 1 0 130.24 0 a65.12 65.12 0 1 0 -130.24 0z" fill="rgba(45, 130, 183, 0.4)" class="triangle-float2"></path>
        <path d="M1847.346,1199.661C1914.566,1197.661,1973.378,1157.763,2006.585,1099.283C2039.356,1041.571,2041.496,971.863,2009.811,913.548C1976.598,852.421,1916.89,807.995,1847.346,806.211C1774.803,804.35,1706.299,842.12,1669.772,904.824C1633.005,967.94,1633.118,1046.702,1670.804,1109.274C1707.362,1169.974,1776.518,1201.768,1847.346,1199.661" fill="rgba(45, 130, 183, 0.4)" class="triangle-float3"></path>
        <path d="M1545.61 878.38 a172.77 172.77 0 1 0 345.54 0 a172.77 172.77 0 1 0 -345.54 0z" fill="rgba(45, 130, 183, 0.4)" class="triangle-float3"></path>
    </g>
    <defs>
        <mask id="SvgjsMask1063">
            <rect width="1920" height="1080" fill="#ffffff"></rect>
        </mask>
        <style>
            @keyframes float1 {
                    0%{transform: translate(0, 0)}
                    50%{transform: translate(-10px, 0)}
                    100%{transform: translate(0, 0)}
                }

                .triangle-float1 {
                    animation: float1 5s infinite;
                }

                @keyframes float2 {
                    0%{transform: translate(0, 0)}
                    50%{transform: translate(-5px, -5px)}
                    100%{transform: translate(0, 0)}
                }

                .triangle-float2 {
                    animation: float2 4s infinite;
                }

                @keyframes float3 {
                    0%{transform: translate(0, 0)}
                    50%{transform: translate(0, -10px)}
                    100%{transform: translate(0, 0)}
                }

                .triangle-float3 {
                    animation: float3 6s infinite;
                }
        </style>
    </defs>
</svg>