<svg xmlns="http://www.w3.org/2000/svg" viewBox="0 0 750 500"><g id="freepik--background-complete--inject-17"><path d="M183.13,97a4.44,4.44,0,1,1-5.6-2.82A4.43,4.43,0,0,1,183.13,97Z" style="fill:#ebebeb"></path><path d="M182.06,95.76c-.15.23-4.05-2.37-8.16-6.34s-7.36-7.18-7.21-7.37,3.8,2.71,7.88,6.66S182.21,95.54,182.06,95.76Z" style="fill:#ebebeb"></path><path d="M172.93,74.84c.26,0,.08,2.5-1.79,4.8s-4.25,3-4.3,2.75,1.88-1.27,3.54-3.37S172.65,74.78,172.93,74.84Z" style="fill:#ebebeb"></path><path d="M176.07,78.21c.26,0,.19,2.47-1.79,4.58s-4.45,2.38-4.44,2.11,2-.89,3.72-2.78S175.79,78.16,176.07,78.21Z" style="fill:#ebebeb"></path><path d="M539.63,88.4a2.77,2.77,0,1,1-3.5-1.77A2.77,2.77,0,0,1,539.63,88.4Z" style="fill:#ebebeb"></path><path d="M539,87.65c-.09.14-2.53-1.48-5.1-4a47.27,47.27,0,0,1-4.51-4.61c.12-.14,2.38,1.69,4.93,4.16S539.06,87.51,539,87.65Z" style="fill:#ebebeb"></path><path d="M533.26,74.58a4,4,0,0,1-1.12,3c-1.16,1.45-2.66,1.88-2.69,1.72s1.17-.79,2.21-2.1S533.08,74.54,533.26,74.58Z" style="fill:#ebebeb"></path><path d="M535.22,76.68c.16,0,.12,1.54-1.12,2.86s-2.78,1.49-2.78,1.32,1.26-.56,2.33-1.74S535,76.65,535.22,76.68Z" style="fill:#ebebeb"></path><path d="M215.71,64A5.06,5.06,0,1,1,217,57,5.06,5.06,0,0,1,215.71,64Z" style="fill:#e0e0e0"></path><path d="M216.68,62.45c-.47-.15,1-5.32,4-11.12s5.6-10.29,6-10.12-1.45,5.18-4.45,10.91S217.14,62.6,216.68,62.45Z" style="fill:#e0e0e0"></path><path d="M239.55,51.38c0,.41-4.24.35-8.52-2.46a11.82,11.82,0,0,1-4.33-4.76c-.72-1.55-.54-2.68-.33-2.68s.53.88,1.41,2.07A16.09,16.09,0,0,0,232,47.46C235.83,50,239.67,50.84,239.55,51.38Z" style="fill:#e0e0e0"></path><path d="M228.56,74.18a5.06,5.06,0,1,1,1.28-7A5.07,5.07,0,0,1,228.56,74.18Z" style="fill:#e0e0e0"></path><path d="M229.53,72.62c-.47-.15,1-5.33,4-11.12s5.6-10.3,6-10.12-1.45,5.18-4.45,10.91S230,72.77,229.53,72.62Z" style="fill:#e0e0e0"></path><path d="M238.1,54.51c0,.46-4,.67-8.1-1.82s-5.84-6.12-5.42-6.3,2.6,2.61,6.32,4.8S238.15,54,238.1,54.51Z" style="fill:#e0e0e0"></path><path d="M181.78,269.7a3.77,3.77,0,1,1-2.93-4.46A3.76,3.76,0,0,1,181.78,269.7Z" style="fill:#e0e0e0"></path><path d="M181.5,268.36c-.33.16-2.21-3.38-3.56-8.06s-2.27-8.42-2-8.55,1.88,3.54,3.21,8.18S181.82,268.2,181.5,268.36Z" style="fill:#e0e0e0"></path><path d="M188.14,250.63c.2.23-2.1,2.37-5.85,3.05a8.76,8.76,0,0,1-4.79-.34c-1.19-.47-1.67-1.16-1.56-1.27s.74.2,1.83.39a12,12,0,0,0,4.29-.06C185.43,251.8,187.92,250.28,188.14,250.63Z" style="fill:#e0e0e0"></path><path d="M193.94,268.57a3.77,3.77,0,1,1-2.93-4.45A3.78,3.78,0,0,1,193.94,268.57Z" style="fill:#e0e0e0"></path><path d="M193.65,267.23c-.32.16-2.2-3.37-3.55-8.05s-2.28-8.43-2-8.55,1.88,3.54,3.21,8.17S194,267.08,193.65,267.23Z" style="fill:#e0e0e0"></path><path d="M189,253.06c.26.23-1.81,2.42-5.31,3.19s-6.29-.3-6.16-.62,2.75.07,5.88-.66S188.73,252.76,189,253.06Z" style="fill:#e0e0e0"></path><path d="M554.3,255.79a3.61,3.61,0,1,1,.49-5.08A3.6,3.6,0,0,1,554.3,255.79Z" style="fill:#e0e0e0"></path><path d="M554.9,254.63c-.34-.08.38-3.84,2.18-8.14s3.37-7.65,3.68-7.55-.72,3.76-2.52,8S555.23,254.71,554.9,254.63Z" style="fill:#e0e0e0"></path><path d="M570.49,245.4c0,.29-3,.5-6.19-1.24a8.36,8.36,0,0,1-3.36-3.13c-.61-1.06-.55-1.87-.4-1.88s.43.59,1.13,1.38a11.05,11.05,0,0,0,3.23,2.53C567.77,244.64,570.55,245,570.49,245.4Z" style="fill:#e0e0e0"></path><path d="M564,262.26a3.61,3.61,0,1,1,.49-5.08A3.62,3.62,0,0,1,564,262.26Z" style="fill:#e0e0e0"></path><path d="M564.64,261.09c-.34-.08.38-3.84,2.18-8.14s3.37-7.65,3.67-7.55-.72,3.77-2.51,8S565,261.17,564.64,261.09Z" style="fill:#e0e0e0"></path><path d="M569.65,247.71c.06.33-2.8.72-5.87-.81s-4.51-4-4.22-4.16,2,1.7,4.78,3S569.66,247.34,569.65,247.71Z" style="fill:#e0e0e0"></path><path d="M484.2,69.47a3.61,3.61,0,1,1-.69-5A3.6,3.6,0,0,1,484.2,69.47Z" style="fill:#e0e0e0"></path><path d="M484.51,68.2c-.35,0-.51-3.82.24-8.42s1.51-8.22,1.83-8.2.17,3.83-.59,8.39S484.86,68.2,484.51,68.2Z" style="fill:#e0e0e0"></path><path d="M497.55,55.61c.08.29-2.79,1.19-6.32.24a8.56,8.56,0,0,1-4-2.27c-.83-.89-1-1.69-.82-1.74s.55.48,1.42,1.09a11.41,11.41,0,0,0,3.73,1.71C494.72,55.51,497.51,55.22,497.55,55.61Z" style="fill:#e0e0e0"></path><path d="M495.17,73.51a3.61,3.61,0,1,1-.7-5.06A3.59,3.59,0,0,1,495.17,73.51Z" style="fill:#e0e0e0"></path><path d="M495.48,72.23c-.35,0-.51-3.82.24-8.42s1.51-8.22,1.83-8.2.17,3.84-.59,8.39S495.82,72.24,495.48,72.23Z" style="fill:#e0e0e0"></path><path d="M497.27,58.06c.12.3-2.57,1.35-5.9.57s-5.31-2.85-5.07-3.07,2.34,1.19,5.35,1.85S497.19,57.7,497.27,58.06Z" style="fill:#e0e0e0"></path><rect x="35.3" y="57.59" width="99.41" height="144.1" style="fill:#e0e0e0"></rect><rect x="30.32" y="57.59" width="99.41" height="144.1" style="fill:#f5f5f5"></rect><rect x="42.68" y="73.19" width="74.71" height="112.88" style="fill:#fff"></rect><path d="M117.39,186.08s0-.19,0-.55,0-.91,0-1.61c0-1.41,0-3.49,0-6.19,0-5.41,0-13.29-.07-23.25,0-19.91-.07-48.09-.12-81.29l.25.25-74.71,0h0l.27-.27c0,42.59,0,81.85-.06,112.89l-.21-.22,54.37.11,15,.06,3.94,0,1.37,0-1.32,0-3.91,0-15,.06-54.51.11h-.22v-.21c0-31,0-70.3-.06-112.89v-.27h.28l74.71,0h.24v.24c0,33.26-.09,61.51-.12,81.45,0,9.94-.05,17.8-.06,23.2,0,2.67,0,4.73,0,6.14,0,.69,0,1.21,0,1.57S117.39,186.08,117.39,186.08Z" style="fill:#e0e0e0"></path><path d="M130,57.59a18.28,18.28,0,0,1-1.78,2.57c-1.15,1.55-2.79,3.65-4.66,5.92s-3.62,4.28-4.91,5.71A17.65,17.65,0,0,1,116.48,74a18.29,18.29,0,0,1,1.9-2.48l4.78-5.8,4.78-5.81A17.33,17.33,0,0,1,130,57.59Z" style="fill:#e0e0e0"></path><path d="M117.77,185.71a92.59,92.59,0,0,0,13,16.3" style="fill:#fff"></path><path d="M130.8,202a14.45,14.45,0,0,1-2.27-2.07,69.85,69.85,0,0,1-4.92-5.54,70.93,70.93,0,0,1-4.33-6,14.38,14.38,0,0,1-1.51-2.67,22.73,22.73,0,0,1,1.83,2.46c1.1,1.54,2.64,3.64,4.43,5.89s3.51,4.21,4.77,5.62A21.67,21.67,0,0,1,130.8,202Z" style="fill:#e0e0e0"></path><path d="M30.31,201.57l13-16.07" style="fill:#fff"></path><path d="M43.33,185.5a95.8,95.8,0,0,1-6.3,8.21,101.25,101.25,0,0,1-6.72,7.86,96.67,96.67,0,0,1,6.3-8.2A103,103,0,0,1,43.33,185.5Z" style="fill:#e0e0e0"></path><path d="M30.32,57.59a89.4,89.4,0,0,1,6.32,7.55,87,87,0,0,1,5.9,7.9,88.67,88.67,0,0,1-6.32-7.56A94.61,94.61,0,0,1,30.32,57.59Z" style="fill:#e0e0e0"></path><rect x="69.09" y="96.11" width="25.02" height="71.03" style="fill:#e0e0e0"></rect><rect x="604.51" y="59.18" width="99.41" height="144.1" style="fill:#e0e0e0"></rect><rect x="599.53" y="59.18" width="99.41" height="144.1" style="fill:#f5f5f5"></rect><rect x="611.88" y="74.79" width="74.71" height="112.88" style="fill:#fff"></rect><path d="M686.59,187.67s0-.19,0-.55,0-.9,0-1.6c0-1.42,0-3.49,0-6.19,0-5.41,0-13.29-.07-23.25,0-19.91-.07-48.1-.12-81.29l.25.25-74.7,0h0l.27-.27c0,42.59,0,81.85-.06,112.88l-.21-.21,54.38.11,15,.06,4,0,1.36,0s-.44,0-1.32,0l-3.9,0-15,.06-54.51.11h-.22v-.22c0-31,0-70.29,0-112.88v-.27h.28l74.7,0h.25v.25c-.05,33.26-.1,61.5-.13,81.45,0,9.93-.05,17.8-.06,23.2,0,2.67,0,4.73,0,6.14,0,.68,0,1.2,0,1.57S686.59,187.67,686.59,187.67Z" style="fill:#e0e0e0"></path><path d="M699.22,59.18a17.27,17.27,0,0,1-1.77,2.58c-1.16,1.54-2.8,3.64-4.67,5.92s-3.62,4.28-4.91,5.71a16.86,16.86,0,0,1-2.19,2.23,18.29,18.29,0,0,1,1.9-2.48l4.79-5.81,4.78-5.81A19.66,19.66,0,0,1,699.22,59.18Z" style="fill:#e0e0e0"></path><path d="M687,187.31a92.59,92.59,0,0,0,13,16.3" style="fill:#fff"></path><path d="M700,203.61a14.45,14.45,0,0,1-2.27-2.07,71.69,71.69,0,0,1-4.92-5.54,69.88,69.88,0,0,1-4.32-6,14.9,14.9,0,0,1-1.52-2.67,19.88,19.88,0,0,1,1.83,2.46c1.1,1.53,2.64,3.64,4.44,5.89s3.51,4.21,4.77,5.62A19.44,19.44,0,0,1,700,203.61Z" style="fill:#e0e0e0"></path><path d="M599.51,203.17l13-16.07" style="fill:#fff"></path><path d="M612.53,187.1a96.67,96.67,0,0,1-6.3,8.2,97.9,97.9,0,0,1-6.72,7.87,101.06,101.06,0,0,1,6.3-8.21C609.41,190.53,612.42,187,612.53,187.1Z" style="fill:#e0e0e0"></path><path d="M599.53,59.18a95.48,95.48,0,0,1,6.32,7.56,90.48,90.48,0,0,1,5.89,7.89,94.12,94.12,0,0,1-6.32-7.55A88,88,0,0,1,599.53,59.18Z" style="fill:#e0e0e0"></path><rect x="638.3" y="97.71" width="25.02" height="71.03" style="fill:#e0e0e0"></rect></g><g id="freepik--Tv--inject-17"><rect x="262.11" y="309.54" width="235.44" height="144.66" style="fill:#e0e0e0"></rect><rect x="313.64" y="300.11" width="118.64" height="9.36" style="fill:#263238"></rect><rect x="338.54" y="289.96" width="65.23" height="12.73" style="fill:#263238"></rect><rect x="232.53" y="98.93" width="273.75" height="190.73" style="fill:#263238"></rect><rect x="238.49" y="103.81" width="261.84" height="180.12" style="fill:#f5f5f5"></rect><path d="M332.38,103.81c.34.06,42.13,90.06,42.13,90.06l-.1-90.06Z" style="fill:#e0e0e0"></path><path d="M433.47,193.87s0-.33-.06-1,0-1.58-.13-2.81A59.06,59.06,0,0,0,410.06,147a58.55,58.55,0,0,0-24.79-11,59,59,0,0,0-15.17-.84,60,60,0,0,0-7.88,1.11,63,63,0,0,0-7.87,2.24,58.86,58.86,0,0,0,0,110.61,63.08,63.08,0,0,0,7.87,2.25,59.94,59.94,0,0,0,7.88,1.1,58.63,58.63,0,0,0,15.18-.83,58.88,58.88,0,0,0,24.79-11,59,59,0,0,0,23.21-43.07c.11-1.23.09-2.17.13-2.81s.06-.95.06-.95,0,1.3-.08,3.77a58.21,58.21,0,0,1-8.1,26.49,59.79,59.79,0,0,1-15,16.87,59,59,0,0,1-24.93,11.11,59.8,59.8,0,0,1-23.24-.24,62.73,62.73,0,0,1-7.93-2.25,59.31,59.31,0,0,1,0-111.51,64,64,0,0,1,7.93-2.25,60.34,60.34,0,0,1,23.23-.24,59.11,59.11,0,0,1,24.94,11.12,59.68,59.68,0,0,1,15,16.87,58.7,58.7,0,0,1,6.49,15.8,58.07,58.07,0,0,1,1.61,10.69C433.51,192.57,433.47,193.87,433.47,193.87Z" style="fill:#455a64"></path><path d="M426.46,193.69s0-.28-.06-.84-.09-1.4-.16-2.47c0-.55-.06-1.15-.1-1.82s-.21-1.39-.33-2.18-.25-1.63-.39-2.53a10.17,10.17,0,0,0-.3-1.39c-.12-.47-.25-1-.38-1.45A49.48,49.48,0,0,0,419,167.18a51.72,51.72,0,0,0-13.19-14.72l-2.24-1.67c-.79-.52-1.62-1-2.44-1.5s-1.63-1-2.53-1.46l-2.69-1.29c-.45-.22-.9-.44-1.37-.65l-1.43-.53-2.92-1.06c-1-.33-2-.54-3.06-.82a26.83,26.83,0,0,0-3.13-.71,48.58,48.58,0,0,0-6.56-.76c-1.11,0-2.24-.15-3.37-.13l-3.43.18c-.58,0-1.16,0-1.74.11l-1.72.26c-1.16.2-2.33.33-3.49.57a54.38,54.38,0,0,0-6.91,2l-1.72.63c-.28.1-.58.2-.86.32l-.83.4L350,148c-1.09.6-2.14,1.29-3.22,1.93-.53.34-1.1.63-1.6,1l-1.53,1.15a57.49,57.49,0,0,0-5.88,5l-2.63,2.9-.66.73-.6.79-1.18,1.58-1.2,1.6-1,1.7-1,1.72-.52.86c-.16.29-.3.6-.45.9-.58,1.22-1.17,2.43-1.75,3.66l-1.41,3.83a51.36,51.36,0,0,0,0,32.69l1.4,3.84,1.76,3.65.44.91.53.86,1,1.71,1,1.71,1.19,1.59,1.19,1.59.59.79.67.73,2.63,2.9a57.49,57.49,0,0,0,5.88,5l1.52,1.15c.51.38,1.07.67,1.6,1,1.09.64,2.14,1.33,3.23,1.93l3.35,1.61.83.4c.28.12.57.22.86.32l1.72.64a54.32,54.32,0,0,0,6.91,2c1.16.24,2.33.38,3.49.57l1.73.26c.57.08,1.15.07,1.73.11l3.43.18c1.13,0,2.26-.09,3.38-.13a48.43,48.43,0,0,0,6.55-.76,27.47,27.47,0,0,0,3.14-.71c1-.28,2.06-.49,3.05-.82l2.92-1.06,1.44-.53,1.37-.65,2.69-1.29c.9-.41,1.69-1,2.53-1.46s1.65-1,2.43-1.5l2.25-1.67A51.81,51.81,0,0,0,419,220.2a49.48,49.48,0,0,0,5.76-13.83c.13-.5.26-1,.38-1.45a10.17,10.17,0,0,0,.3-1.39c.14-.9.27-1.74.39-2.53s.26-1.51.33-2.18.07-1.27.1-1.82c.07-1.07.12-1.9.16-2.47s.06-.84.06-.84,0,.29,0,.84-.06,1.4-.1,2.48c0,.55-.05,1.16-.08,1.83s-.19,1.39-.3,2.18-.24,1.64-.38,2.55a8.78,8.78,0,0,1-.28,1.39c-.12.47-.25,1-.37,1.46a49.42,49.42,0,0,1-5.71,13.92A51.65,51.65,0,0,1,406,235.21l-2.25,1.69c-.79.53-1.63,1-2.45,1.52s-1.64,1.06-2.55,1.48l-2.71,1.31-1.37.66-1.45.53-2.94,1.08c-1,.33-2,.55-3.08.83a25.42,25.42,0,0,1-3.16.72,46.09,46.09,0,0,1-6.61.78c-1.13.05-2.26.16-3.41.14l-3.46-.17c-.58,0-1.16,0-1.74-.11l-1.75-.26c-1.16-.19-2.35-.33-3.52-.57a55.23,55.23,0,0,1-7-2l-1.74-.64c-.29-.11-.58-.2-.87-.32l-.84-.41-3.38-1.62c-1.1-.6-2.16-1.3-3.26-1.94-.53-.35-1.11-.64-1.62-1l-1.54-1.16a58.55,58.55,0,0,1-5.94-5l-2.66-2.93-.67-.74-.6-.79-1.2-1.6-1.2-1.61L330,221.28l-1-1.74-.53-.87-.45-.91-1.77-3.69c-.48-1.29-1-2.58-1.43-3.88a51.89,51.89,0,0,1,0-33c.47-1.3.95-2.59,1.42-3.88l1.78-3.69c.15-.3.29-.61.45-.91l.52-.87L330,166.1l1.05-1.72,1.21-1.61,1.19-1.6.61-.8.66-.73,2.67-2.93a58.45,58.45,0,0,1,5.93-5l1.55-1.16c.51-.38,1.08-.67,1.61-1,1.1-.64,2.16-1.34,3.26-1.94l3.38-1.62.84-.41.87-.32,1.74-.63a53.67,53.67,0,0,1,7-2c1.17-.24,2.36-.37,3.52-.56l1.75-.27c.58-.07,1.16-.07,1.74-.11l3.46-.17c1.15,0,2.28.1,3.41.14a47.74,47.74,0,0,1,6.61.78,25.84,25.84,0,0,1,3.16.72c1,.28,2.08.5,3.08.83l2.93,1.08,1.45.53c.47.21.92.44,1.38.66l2.71,1.31c.9.42,1.7,1,2.54,1.48s1.66,1,2.45,1.52l2.26,1.69A51.75,51.75,0,0,1,419.23,167a49.23,49.23,0,0,1,5.7,13.93l.38,1.46a8.78,8.78,0,0,1,.28,1.39c.14.91.26,1.76.38,2.55s.24,1.51.3,2.18.06,1.28.08,1.83c0,1.08.08,1.9.1,2.48S426.46,193.69,426.46,193.69Z" style="fill:#455a64"></path><path d="M500.32,193.87c0,.14-58.62.26-130.91.26s-130.92-.12-130.92-.26,58.6-.26,130.92-.26S500.32,193.72,500.32,193.87Z" style="fill:#263238"></path><path d="M374.41,283.93c-.14,0-.26-39.87-.26-89s.12-89,.26-89,.26,39.85.26,89S374.55,283.93,374.41,283.93Z" style="fill:#263238"></path><path d="M377.27,171.7v42.35h-6V177h-9.56V171.7Z" style="fill:#455a64"></path><path d="M497.54,289.65c0,.15-58.8.26-131.32.26s-131.34-.11-131.34-.26,58.79-.26,131.34-.26S497.54,289.51,497.54,289.65Z" style="fill:#455a64"></path><path d="M431.84,300.5c0,.14-26.3.26-58.73.26s-58.72-.12-58.72-.26,26.28-.26,58.72-.26S431.84,300.36,431.84,300.5Z" style="fill:#455a64"></path></g><g id="freepik--Floor--inject-17"><path d="M733.35,454.19c0,.15-153.56.26-342.94.26s-343-.11-343-.26,153.53-.26,343-.26S733.35,454.05,733.35,454.19Z" style="fill:#263238"></path><path d="M577.42,471.91c0,.14-93.56.26-209,.26s-209-.12-209-.26,93.54-.26,209-.26S577.42,471.77,577.42,471.91Z" style="fill:#263238"></path></g><g id="freepik--Speakers--inject-17"><rect x="-14.87" y="365.34" width="145.73" height="32.88" transform="translate(-323.78 439.77) rotate(-90)" style="fill:#263238"></rect><circle cx="58" cy="435.5" r="12.9" transform="translate(-323.3 217.24) rotate(-52.63)" style="fill:#455a64"></circle><g style="opacity:0.30000000000000004"><circle cx="58" cy="435.5" r="10.05" transform="translate(-381.17 422.99) rotate(-80.78)"></circle></g><path d="M58,432.48a3,3,0,1,1-3,3A3,3,0,0,1,58,432.48Z" style="fill:#455a64"></path><path d="M58,432.48s-.27,0-.72.19a3,3,0,0,0-1.54,1.11A2.82,2.82,0,0,0,58,438.27a2.82,2.82,0,0,0,2.61-1.82,2.85,2.85,0,0,0-.36-2.67,3,3,0,0,0-1.54-1.11,7.12,7.12,0,0,1-.71-.19s.27-.09.76,0a3,3,0,0,1,1.79,1.09,3.18,3.18,0,0,1,.51,3.05,3.24,3.24,0,0,1-6.13,0,3.2,3.2,0,0,1,.51-3.05,3,3,0,0,1,1.79-1.09C57.73,432.39,58,432.45,58,432.48Z" style="fill:#263238"></path><circle cx="58" cy="401.87" r="12.9" transform="translate(-346.75 369.53) rotate(-77.22)" style="fill:#455a64"></circle><g style="opacity:0.30000000000000004"><circle cx="58" cy="401.87" r="10.05" transform="translate(-341.59 329.81) rotate(-71.57)"></circle></g><path d="M58,398.85a3,3,0,1,1-3,3A3,3,0,0,1,58,398.85Z" style="fill:#455a64"></path><path d="M58,398.85s-.27,0-.72.19a3,3,0,0,0-1.54,1.11,2.85,2.85,0,0,0-.36,2.67,2.79,2.79,0,0,0,5.23,0,2.85,2.85,0,0,0-.36-2.67A3,3,0,0,0,58.71,399a7.12,7.12,0,0,1-.71-.19s.27-.09.76,0a3,3,0,0,1,1.79,1.09,3.19,3.19,0,0,1,.51,3.06,3.25,3.25,0,0,1-6.13,0,3.22,3.22,0,0,1,.51-3.06,3,3,0,0,1,1.79-1.09C57.73,398.76,58,398.82,58,398.85Z" style="fill:#263238"></path><circle cx="58" cy="368.24" r="12.9" transform="translate(-313.95 343.35) rotate(-77.22)" style="fill:#455a64"></circle><g style="opacity:0.30000000000000004"><circle cx="58" cy="368.24" r="10.05" transform="matrix(0.16, -0.99, 0.99, 0.16, -314.78, 366.51)"></circle></g><path d="M58,365.22a3,3,0,1,1-3,3A3,3,0,0,1,58,365.22Z" style="fill:#455a64"></path><path d="M58,365.22s-.27,0-.72.19a3,3,0,0,0-1.54,1.12,2.8,2.8,0,1,0,4.51,0,3,3,0,0,0-1.54-1.11,7.12,7.12,0,0,1-.71-.19s.27-.09.76,0a3,3,0,0,1,1.79,1.08,3.19,3.19,0,0,1,.51,3.06,3.25,3.25,0,0,1-6.13,0,3.22,3.22,0,0,1,.51-3.06,3,3,0,0,1,1.79-1.08C57.73,365.13,58,365.19,58,365.22Z" style="fill:#263238"></path><circle cx="58" cy="334.62" r="12.9" transform="translate(-153.86 69.2) rotate(-28.76)" style="fill:#455a64"></circle><g style="opacity:0.30000000000000004"><circle cx="58" cy="334.62" r="10.05" transform="translate(-281.59 338.26) rotate(-80.78)"></circle></g><path d="M58,331.59a3,3,0,1,1-3,3A3,3,0,0,1,58,331.59Z" style="fill:#455a64"></path><path d="M58,331.59c0,.05-.27.05-.72.19a3,3,0,0,0-1.54,1.12,2.8,2.8,0,1,0,4.51,0,3,3,0,0,0-1.54-1.12c-.44-.14-.72-.14-.71-.19s.27-.09.76,0a3,3,0,0,1,1.79,1.08,3.19,3.19,0,0,1,.51,3.06,3.25,3.25,0,0,1-6.13,0,3.22,3.22,0,0,1,.51-3.06,3,3,0,0,1,1.79-1.08C57.73,331.5,58,331.56,58,331.59Z" style="fill:#263238"></path><rect x="629.52" y="365.34" width="145.73" height="32.88" transform="translate(320.61 1084.16) rotate(-90)" style="fill:#263238"></rect><circle cx="702.38" cy="435.5" r="12.9" transform="translate(-78.08 163.69) rotate(-12.6)" style="fill:#455a64"></circle><g style="opacity:0.30000000000000004"><circle cx="702.38" cy="435.5" r="10.05" transform="translate(35.08 923.06) rotate(-67.95)"></circle></g><path d="M702.38,432.48a3,3,0,1,1-3,3A3,3,0,0,1,702.38,432.48Z" style="fill:#455a64"></path><path d="M702.38,432.48s-.27,0-.71.19a3.06,3.06,0,0,0-1.55,1.11,2.88,2.88,0,0,0-.35,2.67,2.79,2.79,0,0,0,5.23,0,2.85,2.85,0,0,0-.36-2.67,3.08,3.08,0,0,0-1.54-1.11c-.45-.14-.72-.15-.72-.19s.27-.09.77,0a3,3,0,0,1,1.78,1.09,3.18,3.18,0,0,1,.52,3.05,3.24,3.24,0,0,1-6.13,0,3.18,3.18,0,0,1,.51-3.05,3,3,0,0,1,1.79-1.09C702.11,432.39,702.38,432.45,702.38,432.48Z" style="fill:#263238"></path><circle cx="702.38" cy="401.87" r="12.9" transform="matrix(1, -0.06, 0.06, 1, -22.42, 42)" style="fill:#455a64"></circle><g style="opacity:0.30000000000000004"><circle cx="702.38" cy="401.87" r="10.05" transform="translate(221.33 1052.59) rotate(-83.3)"></circle></g><path d="M702.38,398.85a3,3,0,1,1-3,3A3,3,0,0,1,702.38,398.85Z" style="fill:#455a64"></path><path d="M702.38,398.85s-.27,0-.71.19a3.06,3.06,0,0,0-1.55,1.11,2.88,2.88,0,0,0-.35,2.67,2.79,2.79,0,0,0,5.23,0,2.85,2.85,0,0,0-.36-2.67A3.08,3.08,0,0,0,703.1,399c-.45-.14-.72-.15-.72-.19s.27-.09.77,0a3,3,0,0,1,1.78,1.09,3.19,3.19,0,0,1,.52,3.06,3.25,3.25,0,0,1-6.13,0,3.19,3.19,0,0,1,.51-3.06,3,3,0,0,1,1.79-1.09C702.11,398.76,702.38,398.82,702.38,398.85Z" style="fill:#263238"></path><circle cx="702.38" cy="368.24" r="12.9" transform="translate(-20.44 41.94) rotate(-3.37)" style="fill:#455a64"></circle><g style="opacity:0.30000000000000004"><circle cx="702.38" cy="368.24" r="10.05" transform="translate(97.42 881.04) rotate(-67.95)"></circle></g><path d="M702.38,365.22a3,3,0,1,1-3,3A3,3,0,0,1,702.38,365.22Z" style="fill:#455a64"></path><path d="M702.38,365.22s-.27,0-.71.19a3,3,0,0,0-1.55,1.12,2.86,2.86,0,0,0-.35,2.66,2.79,2.79,0,0,0,5.23,0,2.85,2.85,0,0,0-.36-2.67,3.08,3.08,0,0,0-1.54-1.11c-.45-.14-.72-.15-.72-.19s.27-.09.77,0a3,3,0,0,1,1.78,1.08,3.19,3.19,0,0,1,.52,3.06,3.25,3.25,0,0,1-6.13,0,3.19,3.19,0,0,1,.51-3.06,3,3,0,0,1,1.79-1.08C702.11,365.13,702.38,365.19,702.38,365.22Z" style="fill:#263238"></path><circle cx="702.38" cy="334.62" r="12.9" transform="translate(129.74 861.3) rotate(-68.08)" style="fill:#455a64"></circle><g style="opacity:0.30000000000000004"><circle cx="702.38" cy="334.62" r="10.05" transform="translate(128.59 860.04) rotate(-67.95)"></circle></g><circle cx="702.38" cy="334.62" r="3.03" transform="translate(125.7 856.87) rotate(-67.64)" style="fill:#455a64"></circle><path d="M702.38,331.59c0,.05-.27.05-.71.19a3,3,0,0,0-1.55,1.12,2.86,2.86,0,0,0-.35,2.66,2.8,2.8,0,1,0,4.87-2.66,3,3,0,0,0-1.54-1.12c-.45-.14-.72-.14-.72-.19s.27-.09.77,0a3,3,0,0,1,1.78,1.08,3.19,3.19,0,0,1,.52,3.06,3.25,3.25,0,0,1-6.13,0,3.19,3.19,0,0,1,.51-3.06,3,3,0,0,1,1.79-1.08C702.11,331.5,702.38,331.56,702.38,331.59Z" style="fill:#263238"></path><rect x="348.31" y="26.57" width="38.28" height="77.48" transform="translate(302.13 432.76) rotate(-90)" style="fill:#263238"></rect><path d="M406.19,49.48a20,20,0,0,1-2.92.83A33.24,33.24,0,0,1,395,51a106.62,106.62,0,0,1-12.24-1.43c-4.57-.67-9.67-1.38-15-.73S357.59,51.13,353,51.7a61.09,61.09,0,0,1-12.31.27c-3.5-.24-6.32-.6-8.27-.84l-2.23-.29c-.52-.07-.78-.12-.78-.12l.78.07,2.24.26c1.95.22,4.77.55,8.27.77a61.81,61.81,0,0,0,12.28-.31c4.6-.57,9.46-2.24,14.8-2.93s10.47.07,15,.75A109.82,109.82,0,0,0,395,50.8a34.07,34.07,0,0,0,8.25-.57,20.48,20.48,0,0,0,2.19-.54C405.93,49.54,406.19,49.48,406.19,49.48Z" style="fill:#455a64"></path><path d="M328.67,54.74l.9-.08c.29,0,.66-.07,1.09-.08l1.49,0a41.11,41.11,0,0,1,9.35,1.77c1.93.54,4,1.19,6.33,1.76a33.82,33.82,0,0,0,7.42,1.11A22.34,22.34,0,0,0,359.3,59a30.37,30.37,0,0,1,4.23-.53,8,8,0,0,1,4.29,1,4.89,4.89,0,0,1,1.62,1.61,4.7,4.7,0,0,1,.61,2.24,5.8,5.8,0,0,1-1.74,4.15,8.36,8.36,0,0,1-3.88,2.1c-2.86.72-5.7.29-8.33.06l-14.05-1.37-9.48-.93L330,67c-.59-.06-.9-.11-.9-.11l.9.07,2.58.23,9.48.87,14.06,1.32c2.63.22,5.45.64,8.26-.06a8.18,8.18,0,0,0,3.78-2.06,5.55,5.55,0,0,0,1.68-4,4.29,4.29,0,0,0-2.13-3.67,7.68,7.68,0,0,0-4.17-1,32.28,32.28,0,0,0-4.21.52,21.79,21.79,0,0,1-4.08.29,33.31,33.31,0,0,1-7.46-1.13c-2.3-.59-4.4-1.24-6.33-1.79a42.15,42.15,0,0,0-9.31-1.83l-1.49,0c-.43,0-.8,0-1.09.05Z" style="fill:#455a64"></path><path d="M405.26,77.26s-.3-.11-.86-.35-1.38-.58-2.45-1a24.93,24.93,0,0,0-4-1.17,12.61,12.61,0,0,0-5.47,0,20,20,0,0,0-6,2.92,30,30,0,0,1-6.84,3.55,22,22,0,0,1-8.42,1.27,6,6,0,0,1-4.05-1.9,3.77,3.77,0,0,1-.94-2.13,3.94,3.94,0,0,1,.49-2.3,7.77,7.77,0,0,1,3.46-3.09c1.38-.68,2.82-1.14,4.12-1.81a9.36,9.36,0,0,0,1.82-1.19,9.66,9.66,0,0,0,1.43-1.57c.83-1.14,1.49-2.38,2.3-3.48a13.31,13.31,0,0,1,6.21-4.47,37.41,37.41,0,0,1,6.52-1.66c2-.36,3.85-.69,5.42-1.1A22.24,22.24,0,0,0,402,56.48a15.48,15.48,0,0,0,2.29-1.31l.74-.54s-.24.21-.72.58A14.44,14.44,0,0,1,402,56.55,21.68,21.68,0,0,1,398,58c-1.58.41-3.41.75-5.43,1.12a37.26,37.26,0,0,0-6.48,1.69A13,13,0,0,0,380,65.17c-.8,1.09-1.46,2.33-2.3,3.48a9.73,9.73,0,0,1-1.46,1.62,10,10,0,0,1-1.85,1.21c-1.33.68-2.77,1.15-4.13,1.82a7.51,7.51,0,0,0-3.36,3,3.55,3.55,0,0,0,.42,4.2,5.75,5.75,0,0,0,3.91,1.82,21.8,21.8,0,0,0,8.33-1.24,29.52,29.52,0,0,0,6.81-3.52,20.19,20.19,0,0,1,6.05-2.91,12.71,12.71,0,0,1,5.53,0,25.64,25.64,0,0,1,4,1.21C404.12,76.7,405.26,77.26,405.26,77.26Z" style="fill:#455a64"></path><path d="M406.59,70.72a11.85,11.85,0,0,0-.85-.84,7.56,7.56,0,0,0-2.92-1.37A22.44,22.44,0,0,0,398,68a19.42,19.42,0,0,1-2.87-.27,5.1,5.1,0,0,1-2.83-1.27,1.6,1.6,0,0,1-.42-1.53,2.1,2.1,0,0,1,1-1.21,8.12,8.12,0,0,1,2.81-.65l4.82-.65,3.25-.42.89-.1a1.44,1.44,0,0,1,.31,0l-.31.06-.88.14-3.24.48-4.81.7a8,8,0,0,0-2.74.64,1.9,1.9,0,0,0-.89,1.08,1.41,1.41,0,0,0,.38,1.34,4.87,4.87,0,0,0,2.71,1.21,20.22,20.22,0,0,0,2.84.28,22,22,0,0,1,4.84.52,7.29,7.29,0,0,1,2.93,1.45A4.24,4.24,0,0,1,406.59,70.72Z" style="fill:#455a64"></path><path d="M406.51,81.58l-.73-.35a14.36,14.36,0,0,0-2.15-.83,20.84,20.84,0,0,0-8.41-.55,40.3,40.3,0,0,0-5.77,1.1c-2,.52-4.21,1.17-6.51,1.77a41.7,41.7,0,0,1-7.34,1.36,21.93,21.93,0,0,1-8-.81c-5.31-1.53-9.85-4.25-14.31-5.87A41.29,41.29,0,0,0,341,74.87a42,42,0,0,0-8.47.43c-1,.17-1.76.3-2.28.42s-.79.15-.79.15,1.07-.3,3.05-.65a40.72,40.72,0,0,1,8.5-.5,41.33,41.33,0,0,1,12.36,2.5c4.48,1.62,9,4.34,14.29,5.85a21.81,21.81,0,0,0,7.89.8,42.66,42.66,0,0,0,7.31-1.33c2.29-.6,4.46-1.25,6.51-1.76a41.77,41.77,0,0,1,5.79-1.08,20.61,20.61,0,0,1,8.45.62,14.74,14.74,0,0,1,2.15.87Z" style="fill:#455a64"></path><path d="M351.52,84.08l-.22,0-.62-.12c-.54-.12-1.33-.28-2.3-.46a55.21,55.21,0,0,0-15.4-.58c-1,.1-1.78.19-2.33.27l-.63.08-.22,0s.07,0,.21-.06l.63-.12c.54-.1,1.34-.22,2.32-.34a50.7,50.7,0,0,1,7.75-.31,50.15,50.15,0,0,1,7.69.9c1,.19,1.76.37,2.29.52l.62.16A.61.61,0,0,1,351.52,84.08Z" style="fill:#455a64"></path><circle cx="349.77" cy="65.47" r="12.9" transform="translate(56.15 266.5) rotate(-45)" style="fill:#455a64"></circle><g style="opacity:0.30000000000000004"><circle cx="349.77" cy="65.47" r="10.05" transform="translate(-1.85 10.78) rotate(-1.76)"></circle></g><path d="M349.77,62.45a3,3,0,1,1-3,3A3,3,0,0,1,349.77,62.45Z" style="fill:#455a64"></path><path d="M349.77,62.45s-.27,0-.72.19a3,3,0,0,0-1.54,1.12,2.8,2.8,0,1,0,4.52,0,3,3,0,0,0-1.55-1.12c-.44-.14-.71-.15-.71-.19s.27-.09.76,0a3,3,0,0,1,1.79,1.08,3.19,3.19,0,0,1,.51,3.06,3.25,3.25,0,0,1-6.13,0,3.19,3.19,0,0,1,.52-3.06A3,3,0,0,1,349,62.45C349.5,62.36,349.77,62.42,349.77,62.45Z" style="fill:#263238"></path><circle cx="382.27" cy="65.47" r="12.9" transform="translate(230.25 422.28) rotate(-76.64)" style="fill:#455a64"></circle><g style="opacity:0.30000000000000004"><circle cx="382.27" cy="65.47" r="10.05"></circle></g><path d="M382.27,62.45a3,3,0,1,1-3,3A3,3,0,0,1,382.27,62.45Z" style="fill:#455a64"></path><path d="M382.27,62.45s-.27,0-.71.19A3,3,0,0,0,380,63.76a2.86,2.86,0,0,0-.35,2.66,2.79,2.79,0,0,0,5.23,0,2.83,2.83,0,0,0-.36-2.66A3,3,0,0,0,383,62.64c-.45-.14-.72-.15-.72-.19s.27-.09.77,0a3,3,0,0,1,1.78,1.08,3.19,3.19,0,0,1,.52,3.06,3.25,3.25,0,0,1-6.13,0,3.19,3.19,0,0,1,.51-3.06,3,3,0,0,1,1.79-1.08C382,62.36,382.27,62.42,382.27,62.45Z" style="fill:#263238"></path><rect x="163.23" y="130.28" width="45.88" height="92.88" transform="translate(372.35 353.45) rotate(180)" style="fill:#263238"></rect><path d="M167.19,130.27a24.4,24.4,0,0,1,1,3.51,40,40,0,0,1,.75,9.92,127.5,127.5,0,0,1-1.71,14.67c-.81,5.48-1.66,11.6-.88,18s2.81,12.2,3.49,17.74a73.06,73.06,0,0,1,.32,14.75c-.29,4.2-.71,7.58-1,9.91-.15,1.14-.27,2-.35,2.69s-.14.93-.14.93,0-.32.1-.94.18-1.55.31-2.69c.26-2.33.66-5.71.93-9.91a74.62,74.62,0,0,0-.37-14.72c-.69-5.51-2.68-11.35-3.51-17.74s.08-12.55.9-18a130.78,130.78,0,0,0,1.75-14.64,41,41,0,0,0-.68-9.9,26.92,26.92,0,0,0-.66-2.62C167.27,130.59,167.19,130.27,167.19,130.27Z" style="fill:#455a64"></path><path d="M173.5,223.21s0-.37-.09-1.08c0-.35-.08-.79-.09-1.31s0-1.12,0-1.79a49.8,49.8,0,0,1,2.13-11.2c.65-2.32,1.42-4.84,2.11-7.59a40.47,40.47,0,0,0,1.34-8.9,21.69,21.69,0,0,0-.07-2.41,20.53,20.53,0,0,0-.29-2.44,39.61,39.61,0,0,1-.63-5.08,9.4,9.4,0,0,1,1.24-5.12,5.75,5.75,0,0,1,1.92-1.94,5.39,5.39,0,0,1,2.67-.72,6.92,6.92,0,0,1,5,2.07,10.13,10.13,0,0,1,2.52,4.64c.86,3.43.34,6.83.06,10-.61,6.33-1.16,12-1.63,16.85s-.85,8.63-1.11,11.36c-.14,1.31-.24,2.34-.32,3.08s-.12,1.08-.12,1.08,0-.37.08-1.08.16-1.78.28-3.09c.25-2.72.61-6.6,1.05-11.36s1-10.52,1.58-16.86c.28-3.15.78-6.54-.07-9.9a10,10,0,0,0-2.46-4.55,6.76,6.76,0,0,0-4.82-2,5.31,5.31,0,0,0-2.56.7,5.58,5.58,0,0,0-1.85,1.86,9.19,9.19,0,0,0-1.21,5,36.15,36.15,0,0,0,.62,5,21,21,0,0,1,.28,2.47,21.87,21.87,0,0,1,.07,2.42,40.64,40.64,0,0,1-1.36,8.94c-.7,2.75-1.48,5.28-2.14,7.59A50.27,50.27,0,0,0,173.42,219c0,.67,0,1.27,0,1.79s.05,1,.07,1.31C173.49,222.84,173.5,223.21,173.5,223.21Z" style="fill:#455a64"></path><path d="M200.5,131.4s-.14.35-.42,1-.7,1.65-1.18,2.94a28.35,28.35,0,0,0-1.41,4.8,15.11,15.11,0,0,0,0,6.56,24.42,24.42,0,0,0,3.5,7.19c.77,1.22,1.59,2.47,2.34,3.83a29.64,29.64,0,0,1,1.92,4.36A28.1,28.1,0,0,1,206.5,167a21.55,21.55,0,0,1,.29,5.22,7.15,7.15,0,0,1-2.26,4.84,4.51,4.51,0,0,1-2.54,1.13,4.76,4.76,0,0,1-2.76-.59,9.41,9.41,0,0,1-3.69-4.14c-.81-1.65-1.37-3.37-2.17-4.94A11.51,11.51,0,0,0,192,166.3a11.39,11.39,0,0,0-1.9-1.71c-1.37-1-2.85-1.8-4.17-2.76a15.93,15.93,0,0,1-5.34-7.44,44.54,44.54,0,0,1-2-7.81c-.43-2.42-.82-4.61-1.31-6.51a26.15,26.15,0,0,0-1.63-4.72A18.72,18.72,0,0,0,174,132.6l-.66-.88s.26.28.7.86a17.45,17.45,0,0,1,1.6,2.73,25.45,25.45,0,0,1,1.67,4.74c.5,1.89.91,4.08,1.35,6.51a43.92,43.92,0,0,0,2,7.76,15.6,15.6,0,0,0,5.3,7.35c1.31,1,2.78,1.74,4.17,2.76a10.18,10.18,0,0,1,3.38,4c.81,1.58,1.37,3.31,2.18,4.94a9.09,9.09,0,0,0,3.6,4,4.53,4.53,0,0,0,2.64.57,4.28,4.28,0,0,0,2.42-1.07,7,7,0,0,0,2.2-4.71,21.7,21.7,0,0,0-.28-5.17,28.6,28.6,0,0,0-3.12-9.16c-.73-1.35-1.54-2.61-2.32-3.83a24.39,24.39,0,0,1-3.49-7.24,15.36,15.36,0,0,1,0-6.62,29.82,29.82,0,0,1,1.45-4.81C199.83,132.76,200.5,131.4,200.5,131.4Z" style="fill:#455a64"></path><path d="M192.66,129.8a10.6,10.6,0,0,0-1,1,9,9,0,0,0-1.66,3.5,27.57,27.57,0,0,0-.56,5.77,23.23,23.23,0,0,1-.33,3.44,6.12,6.12,0,0,1-1.51,3.38,2,2,0,0,1-1.82.5,2.5,2.5,0,0,1-1.44-1.18,9.87,9.87,0,0,1-.78-3.36c-.29-2.15-.55-4.1-.78-5.78s-.38-2.88-.51-3.89c0-.41-.09-.76-.13-1.07l0-.37.08.37c0,.3.1.65.16,1l.57,3.89c.24,1.68.52,3.62.83,5.77a9.8,9.8,0,0,0,.77,3.29,2.29,2.29,0,0,0,1.31,1.08,1.72,1.72,0,0,0,1.63-.46,5.92,5.92,0,0,0,1.45-3.26,24,24,0,0,0,.34-3.4,26.4,26.4,0,0,1,.61-5.8,8.7,8.7,0,0,1,1.74-3.52A5,5,0,0,1,192.66,129.8Z" style="fill:#455a64"></path><path d="M205.68,129.89s-.14.31-.42.87a18.27,18.27,0,0,0-1,2.58,24.87,24.87,0,0,0-.66,10.09,49.16,49.16,0,0,0,1.31,6.91c.63,2.46,1.4,5,2.13,7.81a49.92,49.92,0,0,1,1.62,8.8,26.42,26.42,0,0,1-1,9.53c-1.83,6.36-5.1,11.8-7.05,17.15a49.53,49.53,0,0,0-3,14.74,50.13,50.13,0,0,0,.52,10.17c.2,1.19.37,2.11.51,2.73s.19.94.19.94-.37-1.28-.78-3.66a49.24,49.24,0,0,1,2.41-25c1.94-5.37,5.2-10.82,7-17.14a26.26,26.26,0,0,0,1-9.46,49.81,49.81,0,0,0-1.61-8.76c-.72-2.76-1.49-5.35-2.11-7.81a49.33,49.33,0,0,1-1.29-6.94,24.84,24.84,0,0,1,.73-10.13,17.5,17.5,0,0,1,1.05-2.58Z" style="fill:#455a64"></path><path d="M208.67,195.81a1.41,1.41,0,0,1,0,.27l-.16.74c-.15.65-.34,1.59-.55,2.76a67.88,67.88,0,0,0-1,9.21,65.7,65.7,0,0,0,.3,9.25c.12,1.18.24,2.14.33,2.79,0,.28.07.53.1.76l0,.27a1.23,1.23,0,0,1-.07-.26l-.14-.75c-.12-.66-.26-1.61-.4-2.79a60.77,60.77,0,0,1-.36-9.28,59.9,59.9,0,0,1,1.07-9.23c.23-1.16.44-2.1.61-2.74.07-.27.14-.52.2-.74A.91.91,0,0,1,208.67,195.81Z" style="fill:#455a64"></path><circle cx="186.37" cy="197.92" r="15.46" style="fill:#455a64"></circle><g style="opacity:0.30000000000000004"><circle cx="186.37" cy="197.92" r="12.05"></circle></g><path d="M182.74,197.92a3.63,3.63,0,1,1,3.63,3.62A3.63,3.63,0,0,1,182.74,197.92Z" style="fill:#455a64"></path><path d="M182.74,197.92a8.58,8.58,0,0,1,.21.86,3.62,3.62,0,0,0,1.34,1.87,3.4,3.4,0,1,0,0-5.47,3.64,3.64,0,0,0-1.34,1.88c-.16.53-.16.86-.21.86a1.85,1.85,0,0,1,0-.91,3.55,3.55,0,0,1,1.3-2.12,3.81,3.81,0,0,1,3.63-.61,3.86,3.86,0,0,1,0,7.27,3.84,3.84,0,0,1-3.63-.6,3.61,3.61,0,0,1-1.3-2.12A1.82,1.82,0,0,1,182.74,197.92Z" style="fill:#263238"></path><circle cx="186.37" cy="158.95" r="15.46" transform="translate(-10.58 304.58) rotate(-76.94)" style="fill:#455a64"></circle><g style="opacity:0.30000000000000004"><circle cx="186.37" cy="158.95" r="12.05" transform="translate(-10.62 304.53) rotate(-76.92)"></circle></g><path d="M182.74,159a3.63,3.63,0,1,1,3.63,3.63A3.64,3.64,0,0,1,182.74,159Z" style="fill:#455a64"></path><path d="M182.74,159s0,.32.21.86a3.68,3.68,0,0,0,1.34,1.88,3.4,3.4,0,1,0,0-5.48,3.64,3.64,0,0,0-1.34,1.88c-.16.54-.16.86-.21.86a1.85,1.85,0,0,1,0-.91,3.58,3.58,0,0,1,1.3-2.12,3.79,3.79,0,0,1,3.63-.6,3.85,3.85,0,0,1,0,7.26,3.81,3.81,0,0,1-3.63-.6,3.61,3.61,0,0,1-1.3-2.12A1.83,1.83,0,0,1,182.74,159Z" style="fill:#263238"></path><rect x="518.32" y="130.28" width="45.88" height="92.88" transform="translate(1082.53 353.45) rotate(180)" style="fill:#263238"></rect><path d="M522.28,130.27a24.4,24.4,0,0,1,1,3.51,40,40,0,0,1,.75,9.92,127.5,127.5,0,0,1-1.71,14.67c-.8,5.48-1.66,11.6-.88,18s2.81,12.2,3.49,17.74a73.06,73.06,0,0,1,.32,14.75c-.28,4.2-.71,7.58-1,9.91-.15,1.14-.26,2-.35,2.69s-.14.93-.14.93,0-.32.1-.94.18-1.55.31-2.69c.26-2.33.66-5.71.93-9.91a74.62,74.62,0,0,0-.37-14.72c-.69-5.51-2.68-11.35-3.51-17.74s.09-12.55.9-18a128.47,128.47,0,0,0,1.75-14.64,41,41,0,0,0-.68-9.9c-.23-1.15-.48-2-.65-2.62S522.28,130.27,522.28,130.27Z" style="fill:#455a64"></path><path d="M528.6,223.21s0-.37-.1-1.08c0-.35-.08-.79-.09-1.31s0-1.12,0-1.79a49.8,49.8,0,0,1,2.13-11.2c.66-2.32,1.43-4.84,2.11-7.59a39.89,39.89,0,0,0,1.34-8.9,21.69,21.69,0,0,0-.07-2.41,20.49,20.49,0,0,0-.28-2.44,37.91,37.91,0,0,1-.64-5.08,9.4,9.4,0,0,1,1.24-5.12,5.78,5.78,0,0,1,1.93-1.94,5.39,5.39,0,0,1,2.66-.72,6.92,6.92,0,0,1,5,2.07,10.21,10.21,0,0,1,2.51,4.64c.86,3.43.34,6.83.07,10-.62,6.33-1.17,12-1.63,16.85l-1.12,11.36c-.13,1.31-.24,2.34-.31,3.08s-.13,1.08-.13,1.08,0-.37.08-1.08.16-1.78.28-3.09c.25-2.72.61-6.6,1-11.36s1-10.52,1.59-16.86c.27-3.15.77-6.54-.08-9.9a10,10,0,0,0-2.46-4.55,6.73,6.73,0,0,0-4.82-2,5.31,5.31,0,0,0-2.56.7,5.67,5.67,0,0,0-1.85,1.86,9.27,9.27,0,0,0-1.21,5,36.15,36.15,0,0,0,.62,5,21,21,0,0,1,.29,2.47,21.85,21.85,0,0,1,.06,2.42,40.05,40.05,0,0,1-1.36,8.94c-.7,2.75-1.47,5.28-2.14,7.59A50.86,50.86,0,0,0,528.51,219c0,.67,0,1.27,0,1.79s.06,1,.07,1.31C528.58,222.84,528.6,223.21,528.6,223.21Z" style="fill:#455a64"></path><path d="M555.59,131.4s-.14.35-.42,1-.7,1.65-1.18,2.94a30.33,30.33,0,0,0-1.41,4.8,15.11,15.11,0,0,0,0,6.56,24.42,24.42,0,0,0,3.5,7.19c.78,1.22,1.59,2.47,2.34,3.83a28.62,28.62,0,0,1,1.92,4.36A29.05,29.05,0,0,1,561.6,167a21.55,21.55,0,0,1,.28,5.22,7.07,7.07,0,0,1-2.26,4.84,4.51,4.51,0,0,1-2.54,1.13,4.71,4.71,0,0,1-2.75-.59,9.37,9.37,0,0,1-3.7-4.14c-.81-1.65-1.37-3.37-2.17-4.94A11.51,11.51,0,0,0,547,166.3a11.39,11.39,0,0,0-1.9-1.71c-1.36-1-2.84-1.8-4.16-2.76a15.88,15.88,0,0,1-5.35-7.44,43.6,43.6,0,0,1-2-7.81c-.44-2.42-.83-4.61-1.32-6.51a26.15,26.15,0,0,0-1.63-4.72,17.85,17.85,0,0,0-1.57-2.75c-.42-.58-.65-.88-.65-.88s.25.28.69.86a17.34,17.34,0,0,1,1.61,2.73,27,27,0,0,1,1.67,4.74c.5,1.89.9,4.08,1.34,6.51a43.92,43.92,0,0,0,2,7.76,15.67,15.67,0,0,0,5.3,7.35c1.31,1,2.79,1.74,4.17,2.76a10.18,10.18,0,0,1,3.38,4c.81,1.58,1.38,3.31,2.18,4.94a9.05,9.05,0,0,0,3.61,4,4.52,4.52,0,0,0,2.63.57,4.34,4.34,0,0,0,2.43-1.07,7,7,0,0,0,2.19-4.71,21.7,21.7,0,0,0-.28-5.17,28.92,28.92,0,0,0-3.11-9.16c-.74-1.35-1.55-2.61-2.33-3.83a24.39,24.39,0,0,1-3.49-7.24,15.36,15.36,0,0,1,0-6.62,29.82,29.82,0,0,1,1.45-4.81C554.92,132.76,555.59,131.4,555.59,131.4Z" style="fill:#455a64"></path><path d="M547.75,129.8a10.6,10.6,0,0,0-1,1,8.84,8.84,0,0,0-1.65,3.5,26.86,26.86,0,0,0-.57,5.77,23.23,23.23,0,0,1-.33,3.44,6,6,0,0,1-1.51,3.38,1.94,1.94,0,0,1-1.82.5,2.48,2.48,0,0,1-1.43-1.18,9.66,9.66,0,0,1-.79-3.36c-.29-2.15-.55-4.1-.78-5.78s-.37-2.88-.51-3.89c-.05-.41-.09-.76-.12-1.07a3.33,3.33,0,0,1,0-.37s0,.13.07.37.1.65.16,1c.15,1,.35,2.32.58,3.89s.51,3.62.82,5.77a10,10,0,0,0,.77,3.29,2.29,2.29,0,0,0,1.31,1.08,1.72,1.72,0,0,0,1.63-.46,5.85,5.85,0,0,0,1.45-3.26,24,24,0,0,0,.34-3.4,26.4,26.4,0,0,1,.61-5.8,8.7,8.7,0,0,1,1.74-3.52A5,5,0,0,1,547.75,129.8Z" style="fill:#455a64"></path><path d="M560.77,129.89s-.14.31-.42.87a18.27,18.27,0,0,0-1,2.58,25.24,25.24,0,0,0-.66,10.09,50.64,50.64,0,0,0,1.31,6.91c.63,2.46,1.4,5,2.13,7.81a49.92,49.92,0,0,1,1.62,8.8,26.2,26.2,0,0,1-1,9.53c-1.83,6.36-5.1,11.8-7,17.15a49.66,49.66,0,0,0-2.5,24.91c.19,1.19.36,2.11.5,2.73s.19.94.19.94a36.28,36.28,0,0,1-.77-3.66,49.06,49.06,0,0,1,2.4-25c1.94-5.37,5.2-10.82,7-17.14a26.26,26.26,0,0,0,1-9.46,49.81,49.81,0,0,0-1.61-8.76c-.71-2.76-1.49-5.35-2.11-7.81a50.81,50.81,0,0,1-1.29-6.94,24.81,24.81,0,0,1,.74-10.13,17.69,17.69,0,0,1,1-2.58Z" style="fill:#455a64"></path><path d="M563.76,195.81a1.41,1.41,0,0,1,0,.27l-.16.74c-.14.65-.34,1.59-.55,2.76a67.88,67.88,0,0,0-1,9.21,65.7,65.7,0,0,0,.3,9.25c.12,1.18.24,2.14.34,2.79,0,.28.07.53.1.76s0,.27,0,.27a1.23,1.23,0,0,1-.07-.26l-.13-.75c-.13-.66-.27-1.61-.41-2.79a60.31,60.31,0,0,1,.71-18.51c.23-1.16.44-2.1.61-2.74.07-.27.14-.52.2-.74A1.62,1.62,0,0,1,563.76,195.81Z" style="fill:#455a64"></path><circle cx="541.46" cy="197.92" r="15.46" style="fill:#455a64"></circle><g style="opacity:0.30000000000000004"><circle cx="541.46" cy="197.92" r="12.05"></circle></g><circle cx="541.46" cy="197.92" r="3.63" style="fill:#455a64"></circle><path d="M537.83,197.92a6.86,6.86,0,0,1,.22.86,3.59,3.59,0,0,0,1.33,1.87,3.4,3.4,0,1,0,0-5.47,3.61,3.61,0,0,0-1.33,1.88,8.39,8.39,0,0,1-.22.86,1.85,1.85,0,0,1,0-.91,3.58,3.58,0,0,1,1.31-2.12,3.79,3.79,0,0,1,3.62-.61,3.86,3.86,0,0,1,0,7.27,3.81,3.81,0,0,1-3.62-.6,3.63,3.63,0,0,1-1.31-2.12A1.82,1.82,0,0,1,537.83,197.92Z" style="fill:#263238"></path><circle cx="541.46" cy="158.95" r="15.46" transform="translate(-19.37 221.52) rotate(-22.73)" style="fill:#455a64"></circle><g style="opacity:0.30000000000000004"><circle cx="541.46" cy="158.95" r="12.05" transform="translate(-19.42 221.03) rotate(-22.68)"></circle></g><path d="M537.83,159a3.63,3.63,0,1,1,3.63,3.63A3.64,3.64,0,0,1,537.83,159Z" style="fill:#455a64"></path><path d="M537.83,159a7.56,7.56,0,0,1,.22.86,3.65,3.65,0,0,0,1.33,1.88,3.4,3.4,0,1,0,0-5.48,3.61,3.61,0,0,0-1.33,1.88,7.56,7.56,0,0,1-.22.86,1.85,1.85,0,0,1,0-.91,3.6,3.6,0,0,1,1.31-2.12,3.76,3.76,0,0,1,3.62-.6,3.85,3.85,0,0,1,0,7.26,3.79,3.79,0,0,1-3.62-.6,3.63,3.63,0,0,1-1.31-2.12A1.83,1.83,0,0,1,537.83,159Z" style="fill:#263238"></path></g><g id="freepik--character-2--inject-17"><path d="M538.53,331.33s44.7,9.48,49.42,15.86l-8.5,15-12.62-4.37Z" style="fill:#263238"></path><path d="M566.83,355.06c0-1.86-33.14-28-37-29.94-7.47-3.74-20.63-4.3-26.16,3.78-3.32,4.84-51.28,58.68-51.28,58.68l86.73-13.38Z" style="fill:#263238"></path><path d="M678.84,312.25s-5.93-11.62-10.56-14.49-13.5-7.66-13.5-7.66H631s-15.08,2.11-22.84,4.47a4.33,4.33,0,0,0-3,3.19l-9.44,27.48-13.81,38.54,1.44.84Z" style="fill:#2D83B9"></path><path d="M646.09,302.52a7.57,7.57,0,0,1-1.31.09l-3.57.07c-3,.05-7.17.12-11.76.25s-8.75.3-11.76.43l-3.56.14a6.2,6.2,0,0,1-1.32,0,7.15,7.15,0,0,1,1.3-.19c.84-.08,2.06-.19,3.56-.3,3-.22,7.17-.45,11.77-.58s8.76-.15,11.77-.1c1.51,0,2.73.06,3.57.1A5.47,5.47,0,0,1,646.09,302.52Z" style="fill:#fff"></path><g style="opacity:0.30000000000000004"><path d="M669.21,291,650,291.3c-3.09,2.44-6.3,5-7.91,8.63s-1,8.5,2.34,10.56a5.61,5.61,0,0,1,1.88,1.36,3.84,3.84,0,0,1,.35,2.66,44.48,44.48,0,0,0-.23,11.23,15.25,15.25,0,0,0,5.08,9.77c2.93,2.35,7.33,3,10.5,1s4.44-6.25,5.13-10.06C669.31,314.8,669.5,302.87,669.21,291Z"></path></g><path d="M518.88,278.83s-8.53-7.12-8.61-7.66l.5-1.11c2.91-1,11.2,1.09,11.2,1.09l10.55,8.8-8.46,2.25Z" style="fill:#263238"></path><path d="M520.6,278a37.45,37.45,0,0,1-5-3.74,38.26,38.26,0,0,1-4.67-4.14,37.45,37.45,0,0,1,5,3.74A36.44,36.44,0,0,1,520.6,278Z" style="fill:#455a64"></path><path d="M542.29,286.1l-3.39-3.82-4.07-5.91s-9.2-6.62-9.7-6.62-8,1.65-8,1.65a2,2,0,0,0,1.35,2.35,30.14,30.14,0,0,0,5.37,1,3.8,3.8,0,0,1,.09,1.55c-.17.54-2.92,1-2.92,1s-2.69-.23-3.08,1a9.21,9.21,0,0,0,.11,3.58s-1,3.55.42,5l1.28,1.5a10.39,10.39,0,0,0,2.19,3.38c1.15.87,4.48,2.77,4.48,2.77l6.47-1.34,1.31,1,8.08-8.17" style="fill:#ffbe9d"></path><path d="M606.64,295.37l-34.59,16.88-29.74-26.9-9.87,9.5s23.75,36.38,35.56,38.57c8.74,1.62,27.73-8.18,27.73-8.18Z" style="fill:#2D83B9"></path><path d="M624.05,244.81c-2.09,5.53-2.34,8.34-3.48,15.68-.14.94-1,9-.71,11.59a11,11,0,0,0,4.83,7.33c1.23.72,5.55,2.47,5.55,2.47l-.46,8.73,23,1.07s1.41-19.31.9-28.64" style="fill:#ffbe9d"></path><path d="M622.71,255.72a57,57,0,0,1,1.71-12.29A19.3,19.3,0,0,1,631,233.16c2.84-2.12,6.35-2.5,9.88-2.87A21.44,21.44,0,0,1,655.19,234a25.33,25.33,0,0,1,10.16,16.17,23.92,23.92,0,0,1,.28,3.49l.12,7.07-13.42,17.74c-4.08,4.14-11.34,3.9-16,.36s-6.78-9.58-6.85-15.39a26.53,26.53,0,0,0-.2-4.72,5.51,5.51,0,0,0-2.45-3.87A3.13,3.13,0,0,0,622.71,255.72Z" style="fill:#263238"></path><path d="M622.91,263.67s.16.22.52.54a5,5,0,0,0,1.78,1,2.6,2.6,0,0,0,1.49,0,3,3,0,0,0,1.4-1,7.72,7.72,0,0,0,1.53-3.41,6.53,6.53,0,0,0-.24-3.74,4.66,4.66,0,0,0-2-2.31,3.65,3.65,0,0,0-2-.48,1.28,1.28,0,0,0-.73.2,4.56,4.56,0,0,1,2.53.63,4.41,4.41,0,0,1,1.73,2.16,6.21,6.21,0,0,1,.18,3.42,7.7,7.7,0,0,1-1.37,3.18,2.34,2.34,0,0,1-2.39.92,5.73,5.73,0,0,1-1.75-.82C623.16,263.77,622.94,263.63,622.91,263.67Z" style="fill:#eb996e"></path><path d="M625,261.9c0,.07.33.08.75-.18a2.08,2.08,0,0,0,.22-3.35c-.39-.31-.7-.34-.73-.27s.19.23.44.55a2,2,0,0,1-.18,2.75C625.25,261.69,625,261.82,625,261.9Z" style="fill:#eb996e"></path><path d="M614.88,273.36s.07.09.25.21a1.94,1.94,0,0,0,.91.2,3,3,0,0,0,2.58-2c.51-1.43,0-3.19-.68-4.87a12.1,12.1,0,0,1-.79-2.69,3.79,3.79,0,0,1,.58-2.75c1.16-1.64,3.14-2.56,4.24-4.13a9.86,9.86,0,0,0,1.9-4.56,9.11,9.11,0,0,0-.1-3.32,5.79,5.79,0,0,0-.26-.86,1.38,1.38,0,0,0-.14-.29,12.93,12.93,0,0,1,.1,4.41,9.72,9.72,0,0,1-1.92,4.29,10.72,10.72,0,0,1-2,1.93,10.75,10.75,0,0,0-2.27,2.21,4.3,4.3,0,0,0-.66,3.15,12.23,12.23,0,0,0,.85,2.8c.71,1.67,1.2,3.28.79,4.56a2.83,2.83,0,0,1-2.21,1.93A2.74,2.74,0,0,1,614.88,273.36Z" style="fill:#263238"></path><path d="M650.65,256.62A9.59,9.59,0,0,1,662,253.76c1.89.91,3.52,2.71,3.52,4.81l-.93,1.21a14.55,14.55,0,0,0-7.91,6.56,14.61,14.61,0,0,1-1.68,2.73,3,3,0,0,1-2.86,1.07,3.52,3.52,0,0,1-1.84-1.61A10.6,10.6,0,0,1,650.65,256.62Z" style="fill:#455a64"></path><path d="M649.76,255.1c0-.14-1.47.18-3.88,0a19.32,19.32,0,0,1-9.18-3.49,28.13,28.13,0,0,1-7.51-8.19c-1.57-2.57-2.27-4.4-2.36-4.34a5.51,5.51,0,0,0,.43,1.3,26.09,26.09,0,0,0,1.6,3.32,26.74,26.74,0,0,0,7.61,8.57,17.84,17.84,0,0,0,9.44,3.37,12.27,12.27,0,0,0,2.86-.2A2.56,2.56,0,0,0,649.76,255.1Z" style="fill:#455a64"></path><path d="M623.85,248.57a6.18,6.18,0,0,0,.61,1.33,23.8,23.8,0,0,0,2.17,3.27,20.26,20.26,0,0,0,9.46,6.86,13.43,13.43,0,0,0,10.14-.77,12,12,0,0,0,2.62-1.78,3.76,3.76,0,0,0,.82-.89,32.11,32.11,0,0,1-3.63,2.15,14,14,0,0,1-9.88.55,20.69,20.69,0,0,1-9.25-6.49C624.86,250.38,623.94,248.49,623.85,248.57Z" style="fill:#455a64"></path><path d="M643.88,305.42a11.54,11.54,0,0,1,1.58-5.18c1.79-3.51,4-6.83,5.58-10.43s2.68-7.59,2.07-11.49c-.77-4.93-4.15-9.61-3-14.47a9.94,9.94,0,0,1,5.92-6.64,15.92,15.92,0,0,1,9.07-.72c6.73,2.27,12.45,8.75,14.29,15.61s1,14.21-1,21c-1,3.43-2.29,7.09-1.16,10.48a39.79,39.79,0,0,0,2,4,5.65,5.65,0,0,1,.49,4.35c-.54,1.4-2.33,2.36-3.63,1.6a10.33,10.33,0,0,1-.1,6.3c-.83,2-3,3.49-5.07,2.94.21,3.36-.69,7-3.22,9.22-3.33,2.95-8.76,2.59-12.32-.08s-5.42-7.12-5.9-11.54a45.49,45.49,0,0,1,.82-12.25,3.08,3.08,0,0,1-3.64,1.58A4.56,4.56,0,0,1,643.88,305.42Z" style="fill:#263238"></path><path d="M687.93,298.92s0,.22-.2.59a3,3,0,0,1-1.1,1.33,4.24,4.24,0,0,1-2.62.72,4,4,0,0,1-3-1.73,7.27,7.27,0,0,1-1.32-4.18,16.46,16.46,0,0,1,.94-5.08,33.13,33.13,0,0,0,2-11.92,25.77,25.77,0,0,0-3.1-11.67,22.23,22.23,0,0,0-6.62-7.31,19.38,19.38,0,0,0-6-2.86,15.84,15.84,0,0,0-1.78-.36,2.47,2.47,0,0,0-.63-.06c0,.06.86.18,2.35.63a20.52,20.52,0,0,1,5.85,3,22.21,22.21,0,0,1,6.4,7.24,25.45,25.45,0,0,1,3,11.44,33.19,33.19,0,0,1-1.91,11.75,16.43,16.43,0,0,0-.91,5.24,7.61,7.61,0,0,0,1.47,4.41,4.36,4.36,0,0,0,3.34,1.81,4.47,4.47,0,0,0,2.76-.86,2.9,2.9,0,0,0,1.08-1.47A1.59,1.59,0,0,0,687.93,298.92Z" style="fill:#263238"></path><path d="M568.35,324.65a4.94,4.94,0,0,1,.11-1.89,31.85,31.85,0,0,1,1.14-4.42,27,27,0,0,1,2.47-5.9c.17,0-.88,2.72-2,6.06-.55,1.68-1,3.21-1.28,4.33A11.78,11.78,0,0,1,568.35,324.65Z" style="fill:#263238"></path><path d="M611.6,312.23a34.79,34.79,0,0,0,0-8.87,34.25,34.25,0,0,0-2.79-8.43,8.62,8.62,0,0,1,1.38,2.25,22.12,22.12,0,0,1,2,12.48A8.73,8.73,0,0,1,611.6,312.23Z" style="fill:#263238"></path><path d="M568.7,353.07a10.61,10.61,0,0,1-1.28-.86l-3.4-2.46c-2.93-2.14-6.85-5-11.19-8.13l-11.27-8-3.42-2.44a8.76,8.76,0,0,1-1.21-.94,8.2,8.2,0,0,1,1.33.77c.83.53,2,1.32,3.51,2.3,2.94,2,7,4.75,11.37,7.9s8.3,6.1,11.11,8.27c1.4,1.08,2.52,2,3.29,2.59A7.86,7.86,0,0,1,568.7,353.07Z" style="fill:#455a64"></path><path d="M566.89,368.92c0,.14-.31.34-.78.46s-.88.1-.91,0,.32-.35.78-.46S566.86,368.78,566.89,368.92Z" style="fill:#263238"></path><rect x="457.46" y="437.89" width="9.58" height="16.31" transform="translate(17.92 -17.85) rotate(2.26)" style="fill:#263238"></rect><rect x="564.44" y="451.76" width="9.58" height="20.15" style="fill:#263238"></rect><rect x="659.44" y="444.01" width="9.58" height="19.16" style="fill:#263238"></rect><path d="M670.84,451.46l38.77-129.61-12.92-9.6s-90.84,0-94.9,3.32S579,359.19,579,359.19s-35.16-17.4-97.19-20c0,0-24.74-.37-28.07,4.43s-3.37,101.19-3.37,101.19l124.17,19.31Z" style="fill:#455a64"></path><path d="M710.11,323.94l-.43,0-1.26.06-4.84.21c-4.2.16-10.28.37-17.79.56l-58.73,1.24-8.5.24-4.15.13a9.77,9.77,0,0,0-2,.17,4.78,4.78,0,0,0-1.73.83,4.55,4.55,0,0,0-1.26,1.43l-.92,1.76-1.8,3.51-3.41,6.82c-4.39,8.92-8.2,17-11.38,23.83s-5.66,12.33-7.43,16.18l-2,4.4c-.22.49-.4.87-.53,1.15a2.5,2.5,0,0,1-.2.38l.15-.4.49-1.17c.44-1,1.09-2.53,1.91-4.44,1.68-3.86,4.15-9.42,7.28-16.25s6.91-15,11.28-23.89l3.4-6.84,1.79-3.51.93-1.78a5,5,0,0,1,1.39-1.59,5.18,5.18,0,0,1,1.92-.92,10.07,10.07,0,0,1,2.09-.18l4.16-.14,8.49-.24Z" style="fill:#263238"></path><path d="M577.65,359.13s.16.06.47.21a2.85,2.85,0,0,1,.56.3l.7.53a9.7,9.7,0,0,1,2.55,5.2c1.14,5.06.38,12.58,0,22s-1.27,20.76-2.22,33.65-2.08,27.34-3.13,42.94l0,.26-.25,0-14.49-1.74-.24,0,0-.24c1-13.83,2.15-28.73,3.3-44.12.83-11.39,1.72-22.52,2.46-33.25a50.25,50.25,0,0,0-.13-8,22.13,22.13,0,0,0-2.06-7.44,16,16,0,0,0-4.81-5.76,25.46,25.46,0,0,0-6.57-3.44c-4.63-1.69-9.41-2.52-14-3.57s-9-1.9-13.36-2.74c-8.64-1.69-16.72-3.1-24.11-4.27-14.78-2.36-26.81-3.79-35.13-4.7l-9.59-1-2.5-.25-.84-.1.85.05,2.5.2c2.19.17,5.43.47,9.6.89,8.33.85,20.37,2.22,35.17,4.53,7.4,1.16,15.48,2.55,24.13,4.21,4.33.83,8.79,1.75,13.38,2.72s9.35,1.86,14,3.57a25.47,25.47,0,0,1,6.69,3.5,16.7,16.7,0,0,1,5,5.92,22.47,22.47,0,0,1,2.11,7.61,50.15,50.15,0,0,1,.14,8c-.74,10.76-1.62,21.87-2.46,33.27-1.15,15.39-2.27,30.28-3.31,44.12l-.22-.27,14.48,1.75-.27.23c1.07-15.61,2.24-30.05,3.21-42.94s1.77-24.23,2.33-33.63,1.27-16.9.19-21.92a9.79,9.79,0,0,0-2.46-5.17c-.25-.21-.48-.39-.68-.54a3.75,3.75,0,0,0-.54-.32C577.8,359.22,577.65,359.13,577.65,359.13Z" style="fill:#263238"></path><path d="M572.39,362.71a30.64,30.64,0,0,0-4.47,1.15,29.59,29.59,0,0,0-4,2.28,8,8,0,0,1,3.81-2.76A8.21,8.21,0,0,1,572.39,362.71Z" style="fill:#263238"></path><path d="M602.2,319a31.88,31.88,0,0,1,4,4.14,32.93,32.93,0,0,1,3.63,4.49,31.54,31.54,0,0,1-4-4.14A32.35,32.35,0,0,1,602.2,319Z" style="fill:#263238"></path><path d="M611.07,321.14a5.24,5.24,0,0,1,1.41,2.58,5.1,5.1,0,0,1,.28,2.92,21.89,21.89,0,0,1-.77-2.77A22,22,0,0,1,611.07,321.14Z" style="fill:#263238"></path><path d="M544.79,287.44a8.86,8.86,0,0,1-1.39,1.64c-.9,1-2.18,2.28-3.62,3.7-2.87,2.84-5.32,5-5.46,4.87a16.46,16.46,0,0,1,1.45-1.57c.92-.95,2.21-2.25,3.65-3.67s2.75-2.69,3.72-3.59A9.23,9.23,0,0,1,544.79,287.44Z" style="fill:#fff"></path><path d="M570.27,333.27c-.14,0,.73-4.91,2-10.9s2.31-10.84,2.45-10.81-.73,4.91-1.94,10.91S570.41,333.3,570.27,333.27Z" style="fill:#fff"></path><path d="M608.11,314.16a21,21,0,0,1,0-2.67,40.06,40.06,0,0,0-.39-6.39,39.47,39.47,0,0,0-1.45-6.23,24.45,24.45,0,0,1-.81-2.55,9.65,9.65,0,0,1,1.16,2.43,30.39,30.39,0,0,1,1.62,6.28,29.64,29.64,0,0,1,.23,6.48A9.65,9.65,0,0,1,608.11,314.16Z" style="fill:#fff"></path></g><g id="freepik--character-1--inject-17"><path d="M197.92,355.06c0-1.86,33.13-28,37-29.94,7.47-3.74,20.63-4.3,26.16,3.78,3.32,4.84,51.28,58.68,51.28,58.68L225.64,374.2Z" style="fill:#263238"></path><polyline points="194.52 345.91 230.56 333.42 200.04 353.84 193.31 345.19" style="fill:#263238"></polyline><path d="M103.21,244.05l7.88,53.71,23.2-2.35L133,282.25s8.42.4,9.39-7.51c.63-5.06-5.33-42.52-5.33-42.52Z" style="fill:#ffbe9d"></path><path d="M140.66,235.55c-3.48,1.58-3.38,7.63-3.38,7.63l-3.8,13.42c-3.24-1.84-7.12-1.12-7.09,4.08,0,3.76,4.71,3.82,4.71,3.82-2,4.93-3.24,8.87-6.48,13.77-3.5,5.29-5.78,6.12-10.32,6.88l-5,.75s-3.66-7.61-11.2-26.88c-8.37-21.39,18.24-22.46,22.24-28.83C126.85,219.8,151.6,230.56,140.66,235.55Z" style="fill:#263238"></path><path d="M98.87,261c-4.67-2.21-6.25-10.13-4.49-15.28a15.54,15.54,0,0,1,11.86-10.09,6.23,6.23,0,0,0,2.09-.56,5.89,5.89,0,0,0,2-2.52c3-5.5,6-10.9,13.12-12a8.15,8.15,0,0,1,4.61.44,7.08,7.08,0,0,1,3.2,3.13,14.93,14.93,0,0,1,3.91-2.1,5.13,5.13,0,0,1,4.3.39,3.15,3.15,0,0,1,1.25,3.87,5.08,5.08,0,0,1,5.64,3.43c.73,2.3-2.4,4.46-2.73,4.7,0,0,2.44,3.6-1.63,6.59-1.64,1.21-4.13.42-4.41.33" style="fill:#263238"></path><path d="M116.46,263.67a11,11,0,0,1-.58,8.08c-.17-.05.32-1.81.47-4S116.29,263.7,116.46,263.67Z" style="fill:#455a64"></path><path d="M118.86,260.62a10.2,10.2,0,0,1,.37,4,9.85,9.85,0,0,1-.66,3.92,22.55,22.55,0,0,1,.07-3.94A20.8,20.8,0,0,1,118.86,260.62Z" style="fill:#455a64"></path><path d="M125.51,250.57c.06.06-.52.64-1.2,1.73a14.9,14.9,0,0,0-1.84,4.66,34.49,34.49,0,0,0-.65,5,8.31,8.31,0,0,1-.27,2.12,7,7,0,0,1-.15-2.13,23.64,23.64,0,0,1,.49-5.15,12.65,12.65,0,0,1,2.07-4.76C124.77,251,125.46,250.51,125.51,250.57Z" style="fill:#455a64"></path><path d="M127.83,244.05c.06,0,.38.47.66,1.38a9.8,9.8,0,0,1-.7,7.26c-.46.84-.86,1.27-.92,1.23s1.14-2,1.38-4.85S127.65,244.11,127.83,244.05Z" style="fill:#455a64"></path><path d="M102.34,261.58c0,.15-.79,0-1.65-.31s-1.51-.71-1.45-.86.8,0,1.66.31S102.4,261.43,102.34,261.58Z" style="fill:#455a64"></path><path d="M112.61,254.18a3.22,3.22,0,0,1-.3,2.43c-.53,1.29-1.41,2.05-1.51,1.94s.48-1,1-2.16S112.44,254.17,112.61,254.18Z" style="fill:#455a64"></path><path d="M115.76,251.83a4.56,4.56,0,0,1-.61,2.94,4.73,4.73,0,0,1-1.86,2.36,22.16,22.16,0,0,1,1.33-2.61A23,23,0,0,1,115.76,251.83Z" style="fill:#455a64"></path><path d="M129.4,226.79c0,.05-.48-.26-1.38-.61a8.67,8.67,0,0,0-4-.42,10.44,10.44,0,0,0-5.43,2.37,14.13,14.13,0,0,0-4,6.1,24.58,24.58,0,0,0-1.21,5.32l0,.36-.33-.12a11.68,11.68,0,0,0-5.34-.55,12.56,12.56,0,0,0-4.09,1.26,19,19,0,0,0-3.16,2.22,3.93,3.93,0,0,1,.67-.79,10.63,10.63,0,0,1,2.33-1.74,12,12,0,0,1,4.19-1.42,11.77,11.77,0,0,1,5.59.49l-.38.23A24.14,24.14,0,0,1,114,234a14.36,14.36,0,0,1,4.23-6.32,10.61,10.61,0,0,1,5.74-2.36,8.27,8.27,0,0,1,4.14.62,6,6,0,0,1,1,.57C129.31,226.69,129.41,226.78,129.4,226.79Z" style="fill:#455a64"></path><path d="M142,227.9s.62-.27,1.41.4a2.33,2.33,0,0,1,.79,1.6,2.68,2.68,0,0,1-1.06,2.12,3.88,3.88,0,0,1-2.74.8,8.17,8.17,0,0,1-3.09-1,31,31,0,0,0-3.12-1.51,12,12,0,0,0-3.58-.69,14.72,14.72,0,0,0-6.87,1.52,19.32,19.32,0,0,0-4.75,3.38,53.68,53.68,0,0,0-3.57,4.08,5.77,5.77,0,0,1,.74-1.27,22.66,22.66,0,0,1,2.54-3.11,18.84,18.84,0,0,1,4.79-3.57,14.86,14.86,0,0,1,7.14-1.62,12.5,12.5,0,0,1,3.76.74,26.58,26.58,0,0,1,3.16,1.57,7.82,7.82,0,0,0,2.89,1,3.41,3.41,0,0,0,2.45-.64,2.33,2.33,0,0,0,1-1.78,2.16,2.16,0,0,0-.61-1.44A2.08,2.08,0,0,0,142,227.9Z" style="fill:#455a64"></path><path d="M181,343.16s42.69-3.21,56.39.53l.7,1.76s-47.09,8.71-58.2,15.18Z" style="fill:#2D83B9"></path><path d="M85.9,312.25s5.93-11.62,10.56-14.49S110,290.1,110,290.1h23.81s20.66,6.07,25.58,8c9.59,3.71,19.53,24.42,19.53,24.42l19,32.56-16.53,9.56Z" style="fill:#2D83B9"></path><rect x="298.03" y="434.95" width="9.58" height="19.16" transform="translate(622.9 876.79) rotate(177.74)" style="fill:#263238"></rect><rect x="191" y="451.74" width="9.58" height="20.17" transform="translate(391.57 923.65) rotate(180)" style="fill:#263238"></rect><rect x="97.05" y="443.5" width="9.58" height="19.16" transform="translate(203.68 906.15) rotate(180)" style="fill:#263238"></rect><path d="M94.18,450.94,55.41,321.34l12.92-9.6s90.83,0,94.9,3.32S186,358.67,186,358.67s35.17-17.39,97.2-20c0,0,24.74-.37,28.06,4.43s3.38,101.2,3.38,101.2L190.5,463.62Z" style="fill:#455a64"></path><path d="M54.91,323.42,138,325l8.49.24,4.16.13a9.45,9.45,0,0,1,2.09.19,5.16,5.16,0,0,1,1.92.91,5.29,5.29,0,0,1,1.39,1.59l.92,1.78,1.8,3.52,3.4,6.84c4.37,8.93,8.15,17,11.28,23.88s5.59,12.4,7.28,16.25l1.91,4.45.49,1.16a2.51,2.51,0,0,1,.14.4,3.27,3.27,0,0,1-.19-.38l-.53-1.14c-.47-1-1.15-2.51-2-4.41l-7.43-16.17c-3.17-6.82-7-14.92-11.37-23.83l-3.42-6.83-1.79-3.5c-.31-.59-.62-1.18-.92-1.77a4.92,4.92,0,0,0-1.26-1.43,4.78,4.78,0,0,0-1.73-.83,9.79,9.79,0,0,0-2-.16l-4.16-.13-8.49-.24L79.23,324.3c-7.51-.19-13.59-.4-17.8-.56l-4.83-.21-1.26-.07Z" style="fill:#263238"></path><path d="M187.36,358.61l-.44.25a3.62,3.62,0,0,0-.55.31l-.67.54a9.79,9.79,0,0,0-2.46,5.18c-1.08,5-.27,12.52.19,21.91s1.34,20.75,2.33,33.64,2.13,27.33,3.21,42.93l-.28-.22,14.49-1.75-.22.27c-1-13.84-2.16-28.74-3.32-44.12-.83-11.4-1.72-22.51-2.45-33.27a51.3,51.3,0,0,1,.13-8,22.65,22.65,0,0,1,2.12-7.61,16.51,16.51,0,0,1,5-5.92,25.35,25.35,0,0,1,6.69-3.51c4.69-1.7,9.48-2.52,14-3.56s9.05-1.89,13.38-2.72c8.64-1.67,16.73-3.06,24.13-4.21,14.8-2.31,26.84-3.69,35.17-4.54,4.17-.41,7.4-.71,9.6-.89l2.5-.2.85-.05s-.28.05-.85.11l-2.49.25-9.59,1c-8.32.9-20.35,2.34-35.14,4.69-7.39,1.18-15.46,2.59-24.1,4.27-4.32.84-8.78,1.77-13.36,2.75s-9.35,1.87-14,3.56a25,25,0,0,0-6.57,3.45,16.11,16.11,0,0,0-4.82,5.75,21.94,21.94,0,0,0-2,7.45,50.12,50.12,0,0,0-.13,7.95c.74,10.74,1.63,21.87,2.46,33.26,1.15,15.39,2.26,30.28,3.3,44.12v.24l-.23,0-14.49,1.73-.25,0,0-.25c-1-15.61-2.19-30.05-3.13-42.94s-1.7-24.25-2.22-33.65-1.19-16.91,0-22a9.78,9.78,0,0,1,2.55-5.2l.7-.53a4.57,4.57,0,0,1,.56-.3Z" style="fill:#263238"></path><path d="M192.63,362.2a9.85,9.85,0,0,1,8.48,3.43,29.59,29.59,0,0,0-4-2.28A30.64,30.64,0,0,0,192.63,362.2Z" style="fill:#263238"></path><path d="M162.82,318.51a31.58,31.58,0,0,1-3.63,4.49,32.4,32.4,0,0,1-4,4.15,31.05,31.05,0,0,1,3.62-4.49A32.05,32.05,0,0,1,162.82,318.51Z" style="fill:#263238"></path><path d="M154,320.63a22.67,22.67,0,0,1-.92,2.73,21,21,0,0,1-.78,2.76,5.2,5.2,0,0,1,.28-2.92A5.06,5.06,0,0,1,154,320.63Z" style="fill:#263238"></path><path d="M150.29,308.91a11,11,0,0,1,2.92-8.36c.13.09-1.05,1.73-1.85,4.05S150.45,308.92,150.29,308.91Z" style="fill:#263238"></path><path d="M189.53,353.2c-.18,0-.11-2.42.22-5.35a27,27,0,0,1,.86-5.29,28,28,0,0,1-.34,5.34A42,42,0,0,1,189.53,353.2Z" style="fill:#263238"></path><path d="M95.51,426.27c-.12-.08,9.59-15.62,21.68-34.72s22-34.52,22.13-34.45-9.59,15.63-21.69,34.73S95.63,426.35,95.51,426.27Z" style="fill:#263238"></path></g><g id="freepik--speech-bubble--inject-17"><path d="M555.24,114.43l8.26-14.54a39,39,0,1,1,9.34,10.38v0Z" style="fill:#fafafa"></path><path d="M555.24,114.43l17.64-4,.18,0-.12-.14v0l-.17.17a39.68,39.68,0,0,0,8,4.82,39.05,39.05,0,0,0,10.67,3,34.72,34.72,0,0,0,6.17.31c1.06-.06,2.14-.08,3.22-.17l3.29-.5a39.25,39.25,0,0,0,24.33-15.62,38.63,38.63,0,0,0,6.58-15,39.66,39.66,0,0,0-.46-17.32,38.41,38.41,0,0,0-8.34-16l-1.59-1.75c-.53-.59-1.15-1.07-1.71-1.61s-1.13-1.09-1.77-1.54l-1.87-1.4a16.55,16.55,0,0,0-1.93-1.28l-2-1.2-2.06-1a19.32,19.32,0,0,0-2.09-.93,39.78,39.78,0,0,0-17.45-2.68,38.38,38.38,0,0,0-16,4.74A39.52,39.52,0,0,0,559.28,68a42.08,42.08,0,0,0-1.69,12.67,38.26,38.26,0,0,0,1.91,10.93,39.58,39.58,0,0,0,3.9,8.38v-.12l-8.16,14.6,8.36-14.49,0-.06,0-.06a39.43,39.43,0,0,1-3.83-8.34,38.5,38.5,0,0,1-1.85-10.85,41.94,41.94,0,0,1,1.72-12.55A39.14,39.14,0,0,1,578,45.62,38.08,38.08,0,0,1,593.81,41a39.38,39.38,0,0,1,17.24,2.66,19,19,0,0,1,2.06.92l2,1,2,1.19A15.37,15.37,0,0,1,619,48l1.85,1.38a22.93,22.93,0,0,1,1.74,1.53c.56.53,1.18,1,1.69,1.59l1.57,1.73A38,38,0,0,1,634.11,70a39.32,39.32,0,0,1,.47,17.11A38.46,38.46,0,0,1,628.09,102,38.88,38.88,0,0,1,617,112.38a39.4,39.4,0,0,1-13,5.13l-3.25.5c-1.08.09-2.15.12-3.2.18a35,35,0,0,1-6.11-.28,39,39,0,0,1-10.6-3,40.35,40.35,0,0,1-8-4.75l-.73-.56.56.72v0l.07-.19Z" style="fill:#263238"></path><path d="M607.16,79.5a3.81,3.81,0,1,0,3.8-3.8A3.81,3.81,0,0,0,607.16,79.5Z" style="fill:#263238"></path><path d="M591.94,79.5a3.81,3.81,0,1,0,3.8-3.8A3.81,3.81,0,0,0,591.94,79.5Z" style="fill:#263238"></path><path d="M576.76,77.6A3.81,3.81,0,1,0,582,76.21,3.81,3.81,0,0,0,576.76,77.6Z" style="fill:#263238"></path></g><g id="freepik--Table--inject-17"><path d="M340.35,335c-.15-4,.68-4.69,1.13-5.43a3.5,3.5,0,0,0,.8-2c0-.87.19-4.68.22-5.9a33.52,33.52,0,0,0,.29-3.66l0-.12a2.16,2.16,0,0,1,1.55-.36,1.65,1.65,0,0,1,.32.07,1.49,1.49,0,0,0,.8,0l.36-.11a2,2,0,0,1,.74-.13,1.47,1.47,0,0,1,.46.12,2.6,2.6,0,0,1-.07.4,35,35,0,0,0,.45,3.64c.09,1.22.43,5,.48,5.89a3.58,3.58,0,0,0,.89,2c.48.71,1.34,1.33,1.37,5.37s.17,13,.17,13c0,.42,0,.88,0,1.3a4.22,4.22,0,0,1-.72,2.49,2.07,2.07,0,0,1-1.57.62c-.61,0-1.49.05-2.38.07l-2.38,0a2.19,2.19,0,0,1-1.51-.46c-1-1-.93-2.58-1-3.85C340.75,348,340.5,339,340.35,335Z" style="fill:#455a64"></path><path d="M342.24,330l.16-.27a3.81,3.81,0,0,0,.76-2.18c0-.45.06-1.78.11-3.06v0c0-1.1.09-2.23.11-2.8,0-.19,0-.4,0-.63l3.09-.06c0,.22.06.43.07.62,0,.57.13,1.7.23,2.79v0c.11,1.28.22,2.6.25,3.06a3.8,3.8,0,0,0,.85,2.15l.17.25.21.29c.42.56,1,1.33,1,4.63,0,1.45,0,2.9,0,4.35,0,2.56,0,5.12.12,7.68a5.07,5.07,0,0,1-.49,3c-.52.83-1.81.81-2.66.84a24.12,24.12,0,0,1-2.82,0,2.46,2.46,0,0,1-1.34-.49c-.64-.56-.53-2.07-.55-2.82-.06-1.91-.11-3.82-.17-5.73-.07-2.2-.13-4.4-.21-6.6-.12-3.29.42-4.08.81-4.66Z" style="fill:#455a64"></path><path d="M347.3,344.43l3-.07-.22-9.07-3,.08a4.53,4.53,0,0,0-4.43,4.64h0A4.53,4.53,0,0,0,347.3,344.43Z" style="fill:#263238"></path><path d="M343.14,318.45l3.45-.08a.63.63,0,0,0,.59-.66h0a.63.63,0,0,0-.62-.63l-3.45.08a.63.63,0,0,0-.59.66h0A.63.63,0,0,0,343.14,318.45Z" style="fill:#455a64"></path><path d="M410.07,334.84c-.15-4,.68-4.69,1.13-5.43a3.5,3.5,0,0,0,.8-2c0-.87.19-4.68.22-5.9a33.52,33.52,0,0,0,.29-3.66l0-.12a2.16,2.16,0,0,1,1.55-.36,3,3,0,0,1,.32.06,1.39,1.39,0,0,0,.8,0,1.89,1.89,0,0,0,.36-.1,2,2,0,0,1,.74-.13,1.47,1.47,0,0,1,.46.12c0,.11,0,.24-.06.4a30.51,30.51,0,0,0,.45,3.64c.08,1.22.43,5,.47,5.89a3.52,3.52,0,0,0,.89,2c.48.72,1.34,1.34,1.37,5.38s.17,13,.17,13c0,.42,0,.87,0,1.3a4.22,4.22,0,0,1-.72,2.49,2.06,2.06,0,0,1-1.57.62l-2.38.07-2.38,0a2.19,2.19,0,0,1-1.51-.46c-1-1-.93-2.58-1-3.85C410.47,347.85,410.22,338.88,410.07,334.84Z" style="fill:#455a64"></path><path d="M412,329.85l.16-.27a3.81,3.81,0,0,0,.76-2.18c0-.46.06-1.78.11-3.06v0c.05-1.1.09-2.23.11-2.8,0-.19,0-.41,0-.63l3.09-.07c0,.23.06.44.07.63,0,.57.14,1.7.23,2.79v0c.11,1.28.22,2.6.25,3.05a3.74,3.74,0,0,0,.85,2.15c.05.09.11.17.17.26l.21.29c.42.56,1,1.33,1,4.62,0,1.46,0,2.91,0,4.36,0,2.56.05,5.12.12,7.68a5.06,5.06,0,0,1-.48,3c-.53.83-1.82.81-2.67.84a24.13,24.13,0,0,1-2.82,0,2.37,2.37,0,0,1-1.34-.48c-.64-.56-.53-2.07-.55-2.82-.06-1.91-.11-3.82-.17-5.73-.07-2.2-.13-4.4-.21-6.6-.12-3.29.42-4.08.81-4.67C411.83,330,411.9,330,412,329.85Z" style="fill:#455a64"></path><path d="M417,344.29l3-.07-.22-9.07-3,.07a4.54,4.54,0,0,0-4.43,4.65h0A4.53,4.53,0,0,0,417,344.29Z" style="fill:#263238"></path><path d="M412.86,318.31l3.45-.08a.63.63,0,0,0,.59-.66h0a.62.62,0,0,0-.62-.63l-3.45.08a.63.63,0,0,0-.59.66h0A.63.63,0,0,0,412.86,318.31Z" style="fill:#455a64"></path><path d="M398.59,329.53a3.14,3.14,0,0,0-2.68-1,2.78,2.78,0,0,0-4.8-2,4.43,4.43,0,0,0-1.53-1.71,2.39,2.39,0,0,0-2.21-.2,1.67,1.67,0,0,0-.92,1.92,2.25,2.25,0,0,0-3.3,2.66,3.19,3.19,0,0,0-4,3.93l20.09-.76A3.14,3.14,0,0,0,398.59,329.53Z" style="fill:#fff"></path><path d="M379.09,329.44a3.51,3.51,0,0,0-3.46-.52,2.44,2.44,0,0,0-3.45-2.1,1.93,1.93,0,0,0-3.64,1.31,3.2,3.2,0,0,0-2.77,1A3.23,3.23,0,0,0,365,332l15.29.77A3.53,3.53,0,0,0,379.09,329.44Z" style="fill:#fff"></path><path d="M368.13,331.12a1.85,1.85,0,0,0-1.75-.61,2.08,2.08,0,0,0-2.76-.76,1.41,1.41,0,1,0-2.61.78,1.72,1.72,0,0,0-2.11,1.58l9.52.85A1.88,1.88,0,0,0,368.13,331.12Z" style="fill:#fff"></path><path d="M358.12,331.67S356.69,352,376.84,352h8.54s15.21-2,15.21-20.32Z" style="fill:#2D83B9"></path><path d="M382.14,323.56a.8.8,0,0,0-1.24,0,1.28,1.28,0,0,0-.07-1.32,1.1,1.1,0,0,0-1.22-.41A1,1,0,0,0,379,323l.07,0-.07,0c-.91-.28-1.28.71-1.15,1.23a1,1,0,0,0,1.28.61,1.11,1.11,0,0,0-.28,1.46,1.12,1.12,0,0,0,1.45.32,1.1,1.1,0,0,0,.35-1.44,1.4,1.4,0,0,0,1.35-.27A1,1,0,0,0,382.14,323.56Z" style="fill:#fff"></path><path d="M400.59,334.28c0,.15-9.47.26-21.15.26s-21.15-.11-21.15-.26,9.47-.26,21.15-.26S400.59,334.14,400.59,334.28Z" style="fill:#263238"></path><path d="M400.59,336.47c0,.14-9.44.26-21.09.26s-21.08-.12-21.08-.26,9.44-.26,21.08-.26S400.59,336.33,400.59,336.47Z" style="fill:#263238"></path><rect x="324.3" y="351.99" width="111.78" height="12.96" style="fill:#263238"></rect><rect x="332.86" y="360.97" width="7.67" height="92.96" style="fill:#263238"></rect><rect x="421.28" y="360.97" width="7.67" height="92.96" style="fill:#263238"></rect><rect x="337.94" y="425.59" width="84.51" height="6.8" style="fill:#263238"></rect><rect x="339.41" y="362.52" width="83.03" height="37.83" style="fill:#263238"></rect><path d="M436.08,364.79c0,.14-24.92.26-55.65.26s-55.65-.12-55.65-.26,24.91-.26,55.65-.26S436.08,364.65,436.08,364.79Z" style="fill:#455a64"></path><path d="M340.93,364.79c.14,0,.17,20,.06,44.57s-.31,44.57-.45,44.57-.17-19.95-.07-44.57S340.79,364.79,340.93,364.79Z" style="fill:#455a64"></path><path d="M421.51,364.79c.15,0,.26,19.64.26,43.86s-.11,43.86-.26,43.86-.26-19.63-.26-43.86S421.37,364.79,421.51,364.79Z" style="fill:#455a64"></path></g></svg>